<svg width="56" height="30" viewBox="0 0 56 30" fill="none" xmlns="http://www.w3.org/2000/svg">
<path d="M0 11.3C0.295672 10.931 0.631021 10.5957 1 10.3C6.19 7.21999 11.4001 4.17004 16.5901 1.10004C17.7659 0.398741 19.1109 0.0321996 20.48 0.0400436H24.9401C25.2405 0.00559639 25.5448 0.0469515 25.8252 0.160405C26.1055 0.273858 26.353 0.455799 26.5449 0.689519C26.7369 0.923239 26.8672 1.2013 26.924 1.49836C26.9807 1.79542 26.9622 2.10198 26.87 2.39002C26.7309 3.21312 26.3053 3.96058 25.6686 4.50037C25.0318 5.04016 24.2248 5.33756 23.39 5.34003C22.39 5.34003 21.33 5.34003 20.29 5.34003C20.0408 5.33582 19.7941 5.39062 19.5701 5.5C16.7701 7.11334 13.9767 8.73004 11.1901 10.35L10.9701 10.55H12.0601C12.7601 10.55 13.12 10.83 13.13 11.35C13.14 11.87 12.7601 12.18 12.0701 12.18H1.58008C1.58008 13.18 1.58008 14.04 1.58008 14.94C1.58008 15.06 1.7301 15.21 1.8501 15.3C2.2601 15.62 2.7 15.91 3.12 16.23C3.59253 16.5809 3.98184 17.0316 4.26013 17.5502C4.53843 18.0687 4.69884 18.6423 4.72998 19.23C4.83998 20.57 4.8701 21.92 5.1001 23.23C5.29457 24.4715 5.90519 25.6099 6.83191 26.4584C7.75863 27.307 8.94638 27.8154 10.2001 27.9C12.496 28.0804 14.8042 28.0301 17.0901 27.75C19.0655 27.4036 20.8582 26.3792 22.1597 24.8533C23.4611 23.3273 24.1897 21.3953 24.2201 19.39C24.2194 18.774 24.2898 18.1599 24.4301 17.56C24.6694 16.7919 25.164 16.1287 25.8318 15.6801C26.4996 15.2314 27.3006 15.0244 28.1022 15.0933C28.9037 15.1621 29.6578 15.5027 30.2394 16.0586C30.8209 16.6145 31.1951 17.3524 31.3 18.15C31.42 19.08 31.3701 20.04 31.5701 20.96C31.9491 22.8652 32.9541 24.589 34.4254 25.8573C35.8967 27.1257 37.7498 27.8658 39.6901 27.96C41.5011 28.09 43.319 28.09 45.13 27.96C48.29 27.75 50.41 25.45 50.64 22.15C50.71 21.15 50.7901 20.24 50.8501 19.28C50.8536 18.6661 51.0145 18.0634 51.3174 17.5294C51.6203 16.9954 52.055 16.5481 52.5801 16.23C53.1294 15.9887 53.5764 15.5622 53.8433 15.0248C54.1101 14.4875 54.1798 13.8735 54.04 13.29C54.0145 12.9338 54.0145 12.5762 54.04 12.22H53.54C48.04 12.22 42.54 12.22 37.05 12.22C36.0049 12.1995 34.972 12.4473 34.05 12.94C32.9464 13.5244 31.6578 13.6536 30.4601 13.3C28.8219 12.864 27.0982 12.864 25.4601 13.3C24.1854 13.6386 22.83 13.4888 21.66 12.88C20.883 12.5417 20.055 12.3355 19.2101 12.27C18.3201 12.17 17.4 12.27 16.49 12.27C15.86 12.27 15.49 11.95 15.49 11.46C15.49 10.97 15.87 10.64 16.49 10.64H19.05C20.2692 10.6109 21.474 10.9078 22.54 11.5C23.2455 11.8968 24.0785 12.001 24.86 11.79C26.8995 11.2349 29.0505 11.2349 31.0901 11.79C31.4752 11.9024 31.8789 11.9365 32.2773 11.8901C32.6758 11.8437 33.061 11.7179 33.41 11.52C34.5139 10.9206 35.7541 10.6174 37.01 10.64C39.41 10.64 41.8001 10.64 44.2001 10.64H44.7201V10.52L44.14 10.19C43.6 9.86001 43.42 9.42005 43.66 8.98005C43.9 8.54005 44.3901 8.45001 44.9401 8.76001C45.8201 9.27001 46.7101 9.75999 47.5701 10.3C47.9666 10.5504 48.432 10.6694 48.9 10.64C49.9 10.64 50.8101 10.64 51.8101 10.53L51.3401 10.24C47.0134 7.68666 42.6801 5.1367 38.3401 2.59003C37.4016 2.02647 36.3246 1.73556 35.23 1.75H30.99C30.41 1.75 30.36 1.82001 30.52 2.38001C30.6362 2.79596 30.8885 3.16095 31.2366 3.41657C31.5847 3.67219 32.0084 3.80372 32.4401 3.79004C33.4401 3.79004 34.51 3.79004 35.54 3.79004C36.0415 3.80497 36.5334 3.93136 36.98 4.16004C38.42 4.94004 39.8201 5.78004 41.2201 6.60004C41.7701 6.92004 41.9501 7.38 41.7101 7.81C41.4701 8.24 40.97 8.34 40.39 8C39.04 7.22001 37.7 6.43005 36.39 5.67005C36.0809 5.50941 35.7383 5.42377 35.39 5.42005C34.39 5.42005 33.39 5.42005 32.39 5.42005C31.51 5.41987 30.6613 5.09373 30.0076 4.50464C29.3538 3.91556 28.9416 3.10527 28.8501 2.23005C28.7975 1.98379 28.7992 1.72902 28.8552 1.48353C28.9113 1.23803 29.0203 1.00768 29.1746 0.808659C29.3288 0.609635 29.5246 0.446734 29.7484 0.331242C29.9722 0.215751 30.2185 0.150472 30.4701 0.140019C32.3601 0.140019 34.24 0.140019 36.13 0.140019C37.2003 0.204779 38.2349 0.549625 39.13 1.14002L54.87 10.4C55.1713 10.549 55.421 10.7849 55.5868 11.0773C55.7526 11.3696 55.8269 11.705 55.8 12.04C55.8 13.09 55.8 14.14 55.8 15.19C55.8171 15.4446 55.7647 15.6991 55.6484 15.9263C55.5322 16.1535 55.3565 16.3449 55.14 16.48C54.64 16.81 54.1401 17.17 53.6801 17.48C53.3699 17.6885 53.1121 17.9657 52.9265 18.29C52.7409 18.6143 52.6326 18.9771 52.61 19.35C52.51 20.71 52.48 22.08 52.25 23.41C52.0087 25.0342 51.218 26.5266 50.0098 27.6384C48.8015 28.7503 47.2486 29.4144 45.61 29.52C43.2247 29.7135 40.826 29.6665 38.4501 29.38C36.0768 28.9783 33.9192 27.7582 32.3518 25.9315C30.7845 24.1047 29.9064 21.7867 29.87 19.38C29.8752 18.9649 29.8451 18.5501 29.78 18.14C29.6859 17.7199 29.4533 17.3436 29.1196 17.0715C28.7859 16.7995 28.3705 16.6475 27.9401 16.64C27.4997 16.6342 27.0712 16.7832 26.7295 17.061C26.3877 17.3388 26.1544 17.7278 26.0701 18.16C25.9501 18.93 26 19.72 25.88 20.49C25.5475 22.9308 24.3603 25.1746 22.5293 26.8225C20.6983 28.4703 18.3422 29.4155 15.88 29.49C13.9403 29.5817 11.997 29.5584 10.0601 29.42C8.38635 29.2387 6.82557 28.4882 5.63879 27.2941C4.45202 26.1001 3.71119 24.5348 3.54004 22.86C3.43004 21.65 3.33999 20.44 3.23999 19.23C3.22088 18.8738 3.12089 18.5265 2.94763 18.2147C2.77437 17.9028 2.53237 17.6344 2.23999 17.43C1.81999 17.12 1.37009 16.84 0.970093 16.5C0.649549 16.2179 0.345667 15.9174 0.0600586 15.6L0 11.3ZM4 10.42V10.52C5 10.52 6 10.52 7 10.52C7.37074 10.5135 7.73446 10.4174 8.06006 10.24C11.5801 8.24 15.06 6.16004 18.61 4.16004C19.1342 3.88965 19.7108 3.73611 20.3 3.71003C21.3 3.64003 22.3 3.71003 23.3 3.71003C23.7396 3.72139 24.17 3.58308 24.5206 3.31781C24.8713 3.05255 25.1213 2.67606 25.23 2.25C25.34 1.83 25.23 1.66004 24.8 1.66004C23.31 1.66004 21.8001 1.66004 20.3401 1.66004C19.3365 1.66372 18.3522 1.93651 17.49 2.45002L4.38 10.17L4 10.42Z" fill="#E30613"/>
<path d="M14.36 13.24C15.97 13.24 17.5901 13.24 19.2001 13.24C19.8058 13.1962 20.4134 13.2909 20.977 13.5169C21.5406 13.7429 22.0454 14.0943 22.453 14.5443C22.8607 14.9944 23.1605 15.5313 23.3298 16.1144C23.499 16.6976 23.5334 17.3117 23.4301 17.91C23.335 19.3556 23.0458 20.7817 22.5701 22.15C22.0478 23.4387 21.1735 24.5544 20.047 25.3696C18.9206 26.1848 17.5875 26.6667 16.2001 26.76C14.2032 26.9166 12.1971 26.9166 10.2001 26.76C9.1641 26.6482 8.19901 26.1804 7.46952 25.4363C6.74003 24.6922 6.29136 23.718 6.20011 22.68C6.00011 20.68 5.85004 18.68 5.75004 16.68C5.7256 16.2339 5.79236 15.7875 5.94609 15.368C6.09981 14.9485 6.3373 14.5647 6.64421 14.24C6.95111 13.9153 7.32093 13.6566 7.73112 13.4795C8.14131 13.3024 8.58329 13.2107 9.03007 13.21H14.36V13.24ZM14.36 14.87C12.6 14.87 10.8401 14.87 9.08012 14.87C8.84746 14.8606 8.61547 14.9009 8.39958 14.9882C8.18369 15.0754 7.98875 15.2076 7.82792 15.376C7.6671 15.5444 7.54407 15.7451 7.46684 15.9648C7.38961 16.1845 7.35998 16.418 7.38005 16.65C7.49005 18.57 7.6101 20.49 7.8101 22.39C7.86091 23.1505 8.19931 23.8631 8.75651 24.3832C9.31371 24.9032 10.0479 25.1917 10.8101 25.19C12.4001 25.19 14.0001 25.25 15.5901 25.19C16.9339 25.1642 18.2309 24.6924 19.2773 23.8488C20.3236 23.0052 21.0598 21.8378 21.37 20.53C21.5544 19.6047 21.6879 18.67 21.7701 17.73C21.8557 17.365 21.8525 16.9847 21.7605 16.6213C21.6686 16.2578 21.4906 15.9218 21.2416 15.6415C20.9927 15.3612 20.6799 15.1448 20.3299 15.0105C19.9798 14.8762 19.6026 14.828 19.23 14.87H14.36Z" fill="#E30613"/>
<path d="M38.9802 13.24H41.9802C42.6102 13.24 42.9802 13.56 42.9802 14.05C42.9802 14.54 42.5902 14.87 41.9802 14.87H36.5402C36.1632 14.8216 35.7801 14.8658 35.424 14.9988C35.0679 15.1317 34.7496 15.3494 34.4965 15.633C34.2434 15.9166 34.0633 16.2575 33.9716 16.6264C33.8799 16.9953 33.8795 17.3809 33.9703 17.75C34.0475 18.6905 34.181 19.6255 34.3702 20.55C34.6728 21.8424 35.3956 22.9981 36.4252 23.8359C37.4548 24.6737 38.7332 25.1464 40.0602 25.18C41.6902 25.27 43.3303 25.25 44.9603 25.18C45.7176 25.1822 46.4478 24.8979 47.0042 24.3841C47.5606 23.8704 47.9022 23.1652 47.9603 22.41C48.1603 20.5 48.2902 18.58 48.4002 16.67C48.42 16.4372 48.3905 16.2027 48.3134 15.9821C48.2363 15.7614 48.1135 15.5595 47.9531 15.3896C47.7926 15.2197 47.598 15.0856 47.3821 14.996C47.1662 14.9065 46.9339 14.8635 46.7003 14.87C46.4503 14.87 46.1902 14.87 45.9402 14.87C45.835 14.8638 45.7321 14.8364 45.6378 14.7893C45.5434 14.7422 45.4595 14.6765 45.3913 14.5961C45.3231 14.5157 45.2719 14.4223 45.2408 14.3216C45.2097 14.2209 45.1993 14.1149 45.2103 14.01C45.2115 13.9093 45.2327 13.81 45.2728 13.7176C45.3128 13.6252 45.3708 13.5417 45.4434 13.4719C45.516 13.4021 45.6016 13.3475 45.6955 13.3111C45.7894 13.2747 45.8895 13.2573 45.9902 13.26C46.5217 13.1697 47.0669 13.2052 47.5822 13.3636C48.0975 13.5221 48.5685 13.7991 48.9575 14.1725C49.3464 14.5458 49.6424 15.0051 49.8217 15.5135C50.0011 16.0219 50.0587 16.5653 49.9902 17.1C49.7902 18.92 49.7502 20.76 49.5502 22.58C49.4782 23.6805 49.0045 24.7161 48.2192 25.4904C47.4339 26.2646 46.3916 26.7236 45.2902 26.78C43.1037 26.9471 40.9059 26.8934 38.7302 26.62C37.1075 26.3345 35.624 25.5227 34.5088 24.3099C33.3937 23.0971 32.7089 21.5509 32.5602 19.91C32.3832 18.8228 32.3096 17.7211 32.3403 16.62C32.4465 15.7072 32.8798 14.8639 33.5601 14.2461C34.2404 13.6284 35.1215 13.278 36.0402 13.26C37.0402 13.26 38.0402 13.26 38.9802 13.26V13.24Z" fill="#E30613"/>
<path d="M3.45011 13.54C3.59333 13.54 3.73068 13.5969 3.83195 13.6982C3.93322 13.7994 3.99003 13.9368 3.99003 14.08C3.99003 14.2232 3.93322 14.3606 3.83195 14.4618C3.73068 14.5631 3.59333 14.62 3.45011 14.62C3.3069 14.62 3.16955 14.5631 3.06828 14.4618C2.96701 14.3606 2.91007 14.2232 2.91007 14.08C2.91007 13.9368 2.96701 13.7994 3.06828 13.6982C3.16955 13.5969 3.3069 13.54 3.45011 13.54ZM3.45011 12.78C3.19018 12.778 2.9355 12.8534 2.71855 12.9966C2.50159 13.1398 2.33212 13.3442 2.23173 13.584C2.13134 13.8238 2.1046 14.088 2.15483 14.3431C2.20505 14.5981 2.33003 14.8325 2.51383 15.0163C2.69764 15.2001 2.93201 15.3251 3.18705 15.3753C3.4421 15.4255 3.70631 15.3987 3.94609 15.2983C4.18586 15.1979 4.39031 15.0285 4.53349 14.8115C4.67667 14.5945 4.75202 14.3399 4.75004 14.08C4.75004 13.7352 4.6131 13.4045 4.3693 13.1607C4.12551 12.9169 3.7949 12.78 3.45011 12.78Z" fill="#E30613"/>
<path d="M52.2902 13.54C52.4334 13.54 52.5708 13.5969 52.672 13.6982C52.7733 13.7994 52.8302 13.9368 52.8302 14.08C52.8302 14.2232 52.7733 14.3606 52.672 14.4618C52.5708 14.5631 52.4334 14.62 52.2902 14.62C52.147 14.62 52.0096 14.5631 51.9084 14.4618C51.8071 14.3606 51.7502 14.2232 51.7502 14.08C51.7502 13.9368 51.8071 13.7994 51.9084 13.6982C52.0096 13.5969 52.147 13.54 52.2902 13.54ZM52.2902 12.78C52.0303 12.778 51.7756 12.8534 51.5586 12.9966C51.3417 13.1398 51.1722 13.3442 51.0718 13.584C50.9714 13.8238 50.9447 14.088 50.9949 14.3431C51.0451 14.5981 51.1701 14.8325 51.3539 15.0163C51.5377 15.2001 51.7721 15.3251 52.0271 15.3753C52.2822 15.4255 52.5464 15.3987 52.7862 15.2983C53.0259 15.1979 53.2304 15.0285 53.3736 14.8115C53.5168 14.5945 53.5922 14.3399 53.5903 14.08C53.5903 13.7352 53.4532 13.4045 53.2094 13.1607C52.9656 12.9169 52.635 12.78 52.2902 12.78Z" fill="#E30613"/>
</svg>
