<svg width="59" height="52" viewBox="0 0 59 52" fill="none" xmlns="http://www.w3.org/2000/svg">
<path d="M58.6301 45.92L58.3801 45.8C58.1777 45.6737 57.9478 45.5983 57.71 45.58C56.71 45.58 55.66 45.58 54.34 45.58C54.07 45.58 53.99 45.53 53.91 45.24C53.77 44.7 53.6001 44.15 53.4401 43.62C53.2801 43.09 53.1 42.48 52.95 41.91C52.9102 41.6347 52.7648 41.3857 52.5445 41.2158C52.3242 41.0459 52.0464 40.9685 51.77 41C49.792 40.9837 47.8297 40.646 45.96 40C45.8092 39.964 45.6725 39.8839 45.5675 39.7699C45.4624 39.656 45.3937 39.5132 45.3701 39.36L38.3701 20.29L38.83 20.13C39.29 19.98 39.73 19.83 40.16 19.66C42.2467 18.9468 44.1278 17.7351 45.64 16.13C46.6714 15.0921 47.2504 13.6882 47.2504 12.225C47.2504 10.7617 46.6714 9.35793 45.64 8.32C45.141 7.75337 44.581 7.24359 43.97 6.79998C41.936 5.34562 39.6249 4.32452 37.1801 3.79998C36.7074 3.69743 36.2839 3.43633 35.98 3.05999C34.8368 1.70792 33.305 0.740718 31.5927 0.289845C29.8805 -0.161028 28.0709 -0.073716 26.41 0.539967C24.7535 1.13703 23.3157 2.21998 22.2845 3.64727C21.2533 5.07455 20.6767 6.77975 20.6301 8.53997C20.593 8.93243 20.654 9.32798 20.8076 9.69103C20.9612 10.0541 21.2026 10.3733 21.5101 10.62C22.2985 11.2314 23.1664 11.7326 24.09 12.11C26.6335 12.9718 29.35 13.195 32.0001 12.76C33.5828 12.6043 35.1104 12.0951 36.47 11.27C37.0872 10.9397 37.5772 10.4138 37.8632 9.77495C38.1491 9.13606 38.2149 8.42027 38.0501 7.73998C37.9301 7.15998 37.79 6.57997 37.65 5.97997L37.53 5.43999L38.03 5.60997C38.64 5.79997 39.21 5.98996 39.77 6.21996C41.7137 6.87988 43.4418 8.05502 44.77 9.61998C45.3929 10.3254 45.7367 11.234 45.7367 12.175C45.7367 13.116 45.3929 14.0246 44.77 14.73C44.4009 15.2542 43.9443 15.7109 43.4201 16.08L43.0001 16.35C41.9806 17.0589 40.8876 17.6557 39.7401 18.13C33.3373 20.5213 26.3063 20.6343 19.83 18.45C17.8016 17.8729 15.9536 16.7889 14.46 15.3C14.0233 14.9134 13.6736 14.4385 13.4342 13.9067C13.1947 13.3748 13.0708 12.7983 13.0708 12.215C13.0708 11.6318 13.1947 11.0551 13.4342 10.5233C13.6736 9.99149 14.0233 9.51658 14.46 9.12999C15.8513 7.76987 17.5338 6.744 19.3801 6.12999C19.7001 5.99999 20.0201 5.89001 20.3801 5.77001L21.03 5.53997L20.5601 4.11998L20.3801 4.17998C17.8441 4.85991 15.5086 6.13912 13.5701 7.90996C12.9341 8.47104 12.4262 9.16244 12.0811 9.93718C11.736 10.7119 11.5617 11.5519 11.5701 12.4C11.623 13.2437 11.8482 14.0675 12.2317 14.8208C12.6152 15.5741 13.149 16.2409 13.8001 16.78C15.592 18.3317 17.696 19.4809 19.97 20.15L20.4901 20.32L20.39 20.7L13.39 39.41C13.3628 39.5504 13.2954 39.68 13.196 39.7829C13.0966 39.8859 12.9695 39.9578 12.83 39.99C11.0052 40.6357 9.08569 40.9736 7.15003 40.99C6.84392 40.9501 6.53451 41.0329 6.28913 41.2202C6.04376 41.4075 5.88231 41.6842 5.84003 41.99C5.68004 42.63 5.49006 43.28 5.30006 43.9C5.11006 44.52 5.01007 44.9 4.88007 45.32C4.82007 45.55 4.75003 45.6 4.52003 45.6H0.99006C0.729212 45.5795 0.470696 45.6621 0.270028 45.83C0.18395 45.9276 0.119067 46.0419 0.0794761 46.1659C0.0398855 46.2898 0.0264696 46.4206 0.0400474 46.55V49.39C0.0400474 50.34 0.240062 50.54 1.18006 50.54H25.0001C25.1702 50.5392 25.337 50.5879 25.48 50.68C25.747 50.8838 26.0008 51.1043 26.2401 51.34L26.5501 51.62H26.6H32.22H32.28L32.59 51.34C32.83 51.12 33.08 50.88 33.34 50.68C33.4838 50.5894 33.6501 50.5409 33.8201 50.54H57.6901C57.9373 50.5219 58.1769 50.4466 58.39 50.32L58.66 50.2H58.79V46.06L58.6301 45.92ZM27.1801 50.1C26.9931 50.0457 26.835 49.92 26.7401 49.75C26.7053 49.5172 26.5817 49.307 26.3952 49.1634C26.2088 49.0199 25.974 48.9541 25.7401 48.98H1.55006V47.11H51.3201V45.56H33.9C33.54 45.56 33.4501 45.5 33.3701 45.16C33.2637 44.8135 33.1229 44.4785 32.95 44.16C32.9 44.06 32.84 43.96 32.79 43.85L33.6701 43.67C34.4901 43.5 35.2601 43.33 36.0601 43.23C38.4849 43.0319 40.9256 43.1767 43.3101 43.66L44.4901 43.84C46.5801 44.15 48.72 44.39 50.79 44.62L51.84 44.74C52.15 44.74 52.2101 44.83 52.2601 45.05C52.3101 45.27 52.38 45.5 52.45 45.72C52.52 45.94 52.56 46.08 52.6 46.26C52.6373 46.5206 52.7757 46.7559 52.9854 46.915C53.1951 47.0742 53.4591 47.1442 53.72 47.11C54.58 47.11 55.4201 47.11 56.3101 47.11H57.1901V49.01H33.27C32.76 49.01 32.09 49.01 31.98 49.91C31.8709 50.033 31.7225 50.1143 31.5601 50.14C29.9401 50.14 28.4801 50.14 27.1801 50.1ZM29.34 43.67C29.9046 43.6612 30.4564 43.8387 30.9101 44.1749C31.3638 44.511 31.6941 44.9873 31.85 45.53H26.85C26.999 44.9872 27.3248 44.5094 27.7758 44.1725C28.2268 43.8356 28.7772 43.6588 29.34 43.67ZM50.53 43.12C49.53 43.01 48.53 42.91 47.53 42.77L44.3801 42.31C42.8901 42.08 41.3801 41.85 39.8101 41.66C39.1464 41.5805 38.4785 41.5405 37.8101 41.54C35.9814 41.5458 34.1653 41.8428 32.4301 42.42C31.8101 42.63 31.36 42.74 30.89 42.42C33.19 40.07 35.5001 39.02 38.1801 39.14C39.8042 39.2827 41.3894 39.7162 42.8601 40.42C44.9324 41.3673 47.127 42.0203 49.3801 42.36H49.73C50.2052 42.4436 50.6879 42.4772 51.1701 42.46C51.5701 42.46 51.6101 42.6 51.6701 42.91C51.6873 43.0155 51.7141 43.1193 51.7501 43.22L50.53 43.12ZM29.39 41.75C26.89 39.02 24.0801 37.65 21.0001 37.65C18.9088 37.6904 16.8553 38.2141 15.0001 39.18L21.8701 20.69C26.787 21.7801 31.8831 21.7801 36.8001 20.69L43.6901 39.18C38.2801 36.44 33.48 37.31 29.39 41.75ZM19.7401 39.27C20.2226 39.1625 20.7156 39.1088 21.21 39.11C22.9973 39.1681 24.7187 39.7991 26.1201 40.91C26.5901 41.25 27.0301 41.63 27.4901 42.03L27.9301 42.41C27.7048 42.5426 27.4509 42.6192 27.1898 42.6331C26.9288 42.647 26.6682 42.5979 26.4301 42.49C23.7085 41.5753 20.807 41.3284 17.97 41.77C16.37 41.98 14.76 42.23 13.2 42.47L9.64002 43.01C9.00002 43.1 8.37003 43.15 7.71003 43.19L7.04005 43.24C7.07076 43.1385 7.09416 43.0349 7.11005 42.93C7.11005 42.65 7.23002 42.53 7.64002 42.52C10.2249 42.3849 12.7649 41.7889 15.14 40.76C16.6303 40.134 18.1687 39.629 19.7401 39.25V39.27ZM13.8801 43.91C14.9301 43.73 16.0101 43.54 17.0701 43.39C19.8903 42.8754 22.7908 43.0122 25.5501 43.79C25.6801 43.79 25.8001 43.87 25.9201 43.91L25.21 45.54H6.36005C6.40859 45.3258 6.47208 45.1153 6.55006 44.91C6.61581 44.8494 6.70078 44.8141 6.79005 44.81C9.17231 44.6729 11.5417 44.3655 13.8801 43.89V43.91ZM35.6701 9.98998C34.3815 10.7438 32.9385 11.1951 31.45 11.31C30.95 11.37 30.4501 11.4 30.0501 11.42H29.65C27.7776 11.4871 25.9107 11.1776 24.16 10.51C21.81 9.51 21.9401 8.92998 22.3701 7.04998C22.7471 5.47644 23.6424 4.07548 24.9121 3.07244C26.1818 2.06939 27.752 1.5226 29.3701 1.52001H29.96C31.6672 1.67678 33.2654 2.42692 34.4768 3.64006C35.6881 4.85321 36.4358 6.45256 36.59 8.15996C36.6439 8.51987 36.5843 8.88761 36.4194 9.21203C36.2545 9.53644 35.9926 9.80137 35.6701 9.96996V9.98998Z" fill="#E30613"/>
<path d="M31.48 16.3C31.48 15.35 30.59 14.65 29.36 14.65C28.13 14.65 27.24 15.35 27.24 16.3C27.24 17.25 28.13 17.96 29.36 17.96C30.59 17.96 31.48 17.26 31.48 16.3ZM28.38 16.3C28.38 16.02 28.82 15.79 29.38 15.79C29.94 15.79 30.38 16.02 30.38 16.3C30.38 16.58 29.94 16.82 29.38 16.82C28.82 16.82 28.39 16.59 28.39 16.3H28.38Z" fill="#E30613"/>
<path d="M41.83 14.25C42.0447 14.1188 42.2305 13.9454 42.3762 13.7404C42.5219 13.5353 42.6245 13.3028 42.6778 13.0569C42.7311 12.8111 42.7339 12.557 42.6862 12.31C42.6384 12.063 42.5411 11.8283 42.4 11.62C42.2569 11.45 42.0775 11.3142 41.8751 11.2225C41.6726 11.1308 41.4523 11.0855 41.23 11.09C40.6682 11.1122 40.1313 11.3276 39.71 11.7C39.3829 11.9703 39.1228 12.3125 38.95 12.7C38.8285 12.9646 38.782 13.2574 38.8155 13.5466C38.849 13.8358 38.9612 14.1103 39.14 14.34C39.285 14.5071 39.465 14.6403 39.6672 14.7302C39.8694 14.82 40.0889 14.8643 40.3101 14.86C40.8719 14.8379 41.4088 14.6224 41.83 14.25ZM40.48 12.58C40.7001 12.3848 40.977 12.2656 41.27 12.24C41.3236 12.234 41.3779 12.2409 41.4284 12.26C41.4788 12.2791 41.5239 12.31 41.5601 12.35C41.7401 12.57 41.56 13.02 41.14 13.35C40.9206 13.5476 40.6439 13.6702 40.35 13.7C40.2959 13.7025 40.2418 13.693 40.1917 13.6722C40.1416 13.6515 40.0967 13.6201 40.0601 13.58C39.8401 13.39 40.03 12.93 40.48 12.58Z" fill="#E30613"/>
<path d="M19.0301 11.75C18.6088 11.3776 18.0719 11.1621 17.5101 11.14C17.288 11.1362 17.0678 11.1818 16.8655 11.2734C16.6631 11.3651 16.4837 11.5005 16.3401 11.67C16.2018 11.8791 16.1068 12.1139 16.0605 12.3603C16.0143 12.6068 16.0179 12.86 16.071 13.1051C16.1241 13.3501 16.2257 13.5821 16.3698 13.7873C16.5139 13.9925 16.6976 14.1668 16.9101 14.3C17.3322 14.6709 17.8686 14.8862 18.4301 14.9099C18.6514 14.915 18.8711 14.871 19.0734 14.7811C19.2756 14.6912 19.4555 14.5576 19.6001 14.39C19.7831 14.1623 19.898 13.8875 19.9316 13.5974C19.9652 13.3072 19.9162 13.0135 19.7901 12.75C19.6209 12.3604 19.3602 12.0173 19.0301 11.75ZM18.7201 13.65C18.6849 13.6918 18.6403 13.7246 18.5898 13.7455C18.5393 13.7663 18.4845 13.7748 18.4301 13.77C18.1363 13.7402 17.8595 13.6176 17.6401 13.42C17.2301 13.07 17.0401 12.62 17.2201 12.42C17.2572 12.3812 17.3025 12.3512 17.3527 12.3321C17.4028 12.3131 17.4566 12.3055 17.5101 12.31C17.8031 12.3356 18.0801 12.4548 18.3001 12.65C18.7101 12.93 18.9001 13.39 18.7201 13.6V13.65Z" fill="#E30613"/>
</svg>
