<svg width="43" height="49" viewBox="0 0 43 49" fill="none" xmlns="http://www.w3.org/2000/svg">
<path d="M25.31 42.07H6.61002C3.81002 42.07 4.03996 42.31 4.04996 39.53V38.83C3.78996 38.83 3.57002 38.83 3.36002 38.83C3.23306 38.8467 3.10397 38.8338 2.98283 38.7923C2.86168 38.7508 2.75172 38.6819 2.66166 38.5909C2.57159 38.4998 2.50385 38.3892 2.46366 38.2676C2.42347 38.146 2.4119 38.0168 2.42997 37.89C2.42997 36.39 2.42997 34.89 2.42997 33.39C2.42997 33.29 2.42997 33.2 2.42997 33.09C1.74363 32.8949 1.1397 32.4813 0.709632 31.912C0.279568 31.3426 0.0467898 30.6485 0.0467898 29.935C0.0467898 29.2214 0.279568 28.5274 0.709632 27.958C1.1397 27.3887 1.74363 26.9751 2.42997 26.78V25.84C2.08636 25.6872 1.75241 25.5135 1.42997 25.32C0.936081 25.0042 0.542243 24.5545 0.294348 24.0233C0.046454 23.4921 -0.0452928 22.9013 0.0299441 22.32C0.0711485 21.7357 0.282575 21.1763 0.637976 20.7107C0.993378 20.2451 1.47721 19.8938 2.02994 19.7C2.41994 19.54 2.55003 19.34 2.49003 18.96C2.58041 18.6312 2.54297 18.2803 2.38529 17.9779C2.22761 17.6756 1.96129 17.4441 1.63993 17.33C1.10063 17.07 0.658456 16.6447 0.377844 16.1158C0.097233 15.587 -0.00708502 14.9823 0.0799929 14.39C0.104724 13.8054 0.294428 13.2397 0.627112 12.7584C0.959796 12.2771 1.42188 11.8998 1.96 11.67L2.49003 11.45C2.49003 10.95 2.49003 10.45 2.49003 9.98001C2.47882 9.89831 2.44965 9.82009 2.4047 9.75095C2.35975 9.6818 2.30014 9.6234 2.23002 9.57999C1.59121 9.35199 1.04001 8.9293 0.654212 8.37143C0.268414 7.81356 0.0674771 7.14866 0.0796267 6.47049C0.0917763 5.79232 0.316428 5.13503 0.721961 4.59134C1.12749 4.04765 1.69344 3.64494 2.34 3.43997L2.50004 3.35001C2.50004 2.59001 2.50004 1.81001 2.50004 1.04001C2.50004 0.270009 2.79004 0.0400085 3.50004 0.0400085C11.2 0.0400085 18.9 0.0400085 26.6 0.0400085C26.8784 0.0499923 27.1457 0.151954 27.36 0.329987C28 0.899987 28.61 1.50996 29.21 2.11996C29.3081 2.23184 29.4299 2.32042 29.5666 2.37924C29.7032 2.43806 29.8514 2.46566 30 2.45999C31.8 2.45999 33.61 2.45999 35.41 2.45999C36.2299 2.45999 36.49 2.72002 36.49 3.55002V23.15H36.58L37.84 21C38.04 20.66 38.22 20.32 38.43 20C38.5915 19.7262 38.8054 19.4869 39.0594 19.2957C39.3134 19.1046 39.6026 18.9653 39.9104 18.886C40.2183 18.8066 40.5387 18.7885 40.8534 18.833C41.1682 18.8774 41.4712 18.9835 41.745 19.145C42.0188 19.3065 42.2581 19.5204 42.4493 19.7744C42.6404 20.0284 42.7797 20.3176 42.859 20.6254C42.9384 20.9332 42.9565 21.2537 42.912 21.5685C42.8676 21.8832 42.7615 22.1862 42.6 22.46C41.77 23.92 40.91 25.36 40.06 26.82C38.95 28.71 37.84 30.59 36.75 32.49C36.5931 32.7609 36.5071 33.067 36.5 33.38C36.5 35.91 36.5 38.44 36.5 40.96C36.5 41.79 36.24 42.06 35.42 42.06C34.13 42.06 32.8299 42.06 31.5299 42.06C31.4069 42.0465 31.2828 42.0722 31.1751 42.1332C31.0674 42.1942 30.9817 42.2876 30.93 42.4C30.38 43.4 29.8 44.4 29.22 45.4C29.131 45.5408 29.0154 45.6631 28.8799 45.76L25.6499 48.27C25.5187 48.4143 25.3424 48.5098 25.1498 48.5407C24.9572 48.5716 24.7598 48.5361 24.59 48.44C24.4322 48.3328 24.3129 48.1778 24.2499 47.9978C24.1869 47.8177 24.1835 47.6222 24.24 47.44C24.44 46.19 24.58 44.94 24.81 43.7C24.9273 43.1427 25.0947 42.5972 25.31 42.07ZM4.04996 37.19H4.26993C12.1499 37.19 20.0333 37.19 27.92 37.19C28.0252 37.1755 28.1262 37.1386 28.216 37.0816C28.3057 37.0247 28.3821 36.9491 28.44 36.86C29.42 35.2333 30.3833 33.5933 31.33 31.94C31.4648 31.6947 31.5369 31.4199 31.54 31.14C31.54 23.3733 31.54 15.6067 31.54 7.84V7.26999H27.08C26.08 7.26999 25.8799 7.06002 25.8799 6.05002C25.8799 4.74002 25.8799 3.42002 25.8799 2.11002V1.64999H4.06998V7.79001L4.21 7.85001C4.4 7.53001 4.61994 7.22001 4.77994 6.85001C4.84476 6.64636 4.98314 6.47414 5.16801 6.36691C5.35287 6.25969 5.57099 6.22513 5.77994 6.26999C5.88918 6.30511 5.98992 6.36278 6.07548 6.43924C6.16103 6.5157 6.22952 6.60928 6.27665 6.7139C6.32377 6.81852 6.34847 6.93186 6.34904 7.0466C6.34961 7.16134 6.32603 7.27489 6.27994 7.37997C6.14832 7.83888 5.90917 8.25978 5.58219 8.60764C5.25521 8.95549 4.84983 9.22024 4.39994 9.37997C4.26706 9.4133 4.15182 9.49593 4.07755 9.61105C4.00328 9.72617 3.97563 9.86516 4.00004 9.99997C4.00004 11.79 4.00004 13.57 4.00004 15.36C4.00004 15.5 4.00004 15.65 4.00004 15.79L4.13993 15.86C4.34891 15.5586 4.53933 15.2447 4.71 14.92C4.95 14.41 5.33994 14.17 5.77994 14.33C5.88693 14.3691 5.98458 14.4301 6.06669 14.5091C6.1488 14.588 6.21359 14.6832 6.25687 14.7886C6.30015 14.894 6.32106 15.0072 6.31815 15.1211C6.31524 15.2349 6.28863 15.347 6.24003 15.45C6.11139 15.9057 5.87663 16.3245 5.55509 16.6721C5.23355 17.0197 4.83425 17.2863 4.38993 17.45C4.25536 17.479 4.13694 17.5583 4.05887 17.6717C3.98081 17.785 3.94908 17.9239 3.97001 18.06C3.97001 19.88 3.97001 21.7 3.97001 23.52C3.97001 23.64 3.97001 23.76 3.97001 23.88L4.12992 23.94C4.32992 23.59 4.54002 23.24 4.73002 22.88C4.80629 22.6893 4.95134 22.5342 5.13651 22.4453C5.32169 22.3564 5.53351 22.3402 5.73002 22.4C5.8305 22.4308 5.9239 22.4812 6.00492 22.5481C6.08594 22.6151 6.15297 22.6973 6.20219 22.7902C6.25141 22.8831 6.28187 22.9847 6.29178 23.0893C6.3017 23.194 6.29082 23.2995 6.25992 23.4C6.20479 23.6265 6.12077 23.845 6.00992 24.05C5.81139 24.4535 5.53113 24.8112 5.1868 25.1004C4.84248 25.3897 4.44163 25.6041 4.00992 25.73V31.18L4.13993 31.25C4.3521 30.9452 4.54586 30.628 4.72001 30.3C4.95001 29.8 5.33994 29.56 5.77994 29.72C5.88727 29.7602 5.98512 29.8222 6.0673 29.9021C6.14947 29.982 6.21427 30.0781 6.25748 30.1842C6.3007 30.2904 6.3214 30.4044 6.3184 30.519C6.31539 30.6335 6.28875 30.7463 6.24003 30.85C6.09421 31.3181 5.84373 31.7468 5.50761 32.1037C5.17148 32.4606 4.75847 32.7364 4.29996 32.91C4.16996 32.97 3.99003 33.14 3.99003 33.26C4.04003 34.65 4.04996 35.88 4.04996 37.19ZM33.19 28.65H33.3C33.73 27.92 34.18 27.19 34.59 26.44C34.7248 26.1947 34.7969 25.9199 34.8 25.64C34.8 18.64 34.8 11.64 34.8 4.63998V4.05002H31.09C31.68 4.62002 32.18 5.13001 32.7 5.60001C32.8693 5.75033 33.0017 5.93773 33.0867 6.14761C33.1717 6.3575 33.207 6.58416 33.19 6.80997C33.19 13.8766 33.19 20.95 33.19 28.03V28.65ZM27.31 38.9H5.73002V40.48H25.93C26.11 40.48 26.38 40.48 26.46 40.32C26.74 39.86 26.9799 39.38 27.2799 38.87L27.31 38.9ZM28.09 43.98L38.72 25.84L37.32 25.02L26.69 43.16L28.09 43.98ZM34.8 35.98H34.71L32.04 40.53H34.8V35.98ZM30.19 5.64999L27.5199 2.99002V5.64999H30.19ZM40.71 22.31C40.96 21.81 41.46 21.43 41.12 20.86C41.0384 20.7435 40.9328 20.6458 40.8103 20.5734C40.6879 20.501 40.5514 20.4555 40.41 20.44C39.72 20.44 39.63 21.05 39.32 21.5L40.71 22.31ZM2.37003 7.79001V5.14999C2.14079 5.28667 1.95129 5.48097 1.82035 5.71353C1.68941 5.9461 1.62155 6.20885 1.62357 6.47574C1.62559 6.74262 1.69738 7.00434 1.83182 7.23489C1.96627 7.46545 2.15865 7.65682 2.38993 7.79001H2.37003ZM2.37003 15.87V13.23C2.13824 13.3647 1.94611 13.5582 1.81327 13.791C1.68043 14.0239 1.61153 14.2878 1.61356 14.5558C1.61559 14.8239 1.68852 15.0866 1.82487 15.3174C1.96122 15.5482 2.15613 15.7388 2.38993 15.87H2.37003ZM2.37003 23.97V21.33C2.14079 21.4667 1.95129 21.661 1.82035 21.8935C1.68941 22.1261 1.62155 22.3888 1.62357 22.6557C1.62559 22.9226 1.69738 23.1843 1.83182 23.4149C1.96627 23.6454 2.15865 23.8368 2.38993 23.97H2.37003ZM2.37003 28.65C2.12033 28.7587 1.91027 28.942 1.76884 29.1748C1.6274 29.4075 1.56148 29.6783 1.57999 29.95C1.56634 30.217 1.6347 30.4818 1.77592 30.7088C1.91713 30.9359 2.12449 31.1142 2.37003 31.22V28.65ZM38.08 23.65L39.46 24.45L39.87 23.76L38.48 22.95L38.08 23.65ZM25.97 45.89L26.85 45.2L26.1399 44.78L25.97 45.89Z" fill="#E30613"/>
<path d="M18.5698 10.52H10.0698C9.91999 10.53 9.76971 10.53 9.61987 10.52C9.4077 10.52 9.20411 10.4357 9.05408 10.2857C8.90405 10.1356 8.81982 9.93217 8.81982 9.72C8.81982 9.50783 8.90405 9.30436 9.05408 9.15433C9.20411 9.0043 9.4077 8.92001 9.61987 8.92001H27.5098C27.7219 8.92001 27.9255 9.0043 28.0756 9.15433C28.2256 9.30436 28.3098 9.50783 28.3098 9.72C28.3098 9.93217 28.2256 10.1356 28.0756 10.2857C27.9255 10.4357 27.7219 10.52 27.5098 10.52C27.3599 10.53 27.2096 10.53 27.0598 10.52H18.5698Z" fill="#E30613"/>
<path d="M18.6599 13.76H27.1899C27.3396 13.7449 27.4903 13.7449 27.6399 13.76C27.8354 13.7819 28.016 13.8751 28.1471 14.0218C28.2782 14.1684 28.3506 14.3583 28.3506 14.555C28.3506 14.7517 28.2782 14.9415 28.1471 15.0881C28.016 15.2348 27.8354 15.328 27.6399 15.35C27.4903 15.365 27.3396 15.365 27.1899 15.35H10.1C9.95036 15.3651 9.79952 15.3651 9.6499 15.35C9.45442 15.328 9.27392 15.2348 9.14282 15.0881C9.01172 14.9415 8.93921 14.7517 8.93921 14.555C8.93921 14.3583 9.01172 14.1684 9.14282 14.0218C9.27392 13.8751 9.45442 13.7819 9.6499 13.76C9.79953 13.745 9.95035 13.745 10.1 13.76H18.6599Z" fill="#E30613"/>
<path d="M18.6099 18.65H27.1899C27.3397 18.6399 27.49 18.6399 27.6398 18.65C27.8379 18.6654 28.0222 18.7577 28.153 18.9073C28.2839 19.0568 28.351 19.2516 28.3399 19.45C28.3509 19.6473 28.2835 19.8411 28.1524 19.989C28.0213 20.1369 27.8371 20.2272 27.6398 20.24C27.4902 20.255 27.3395 20.255 27.1899 20.24H10.0999C9.95032 20.2552 9.79948 20.2552 9.64986 20.24C9.45263 20.2272 9.26849 20.1369 9.13741 19.989C9.00633 19.8411 8.93895 19.6473 8.94991 19.45C8.93885 19.2516 9.00596 19.0568 9.1368 18.9073C9.26764 18.7577 9.45176 18.6654 9.64986 18.65C9.79969 18.6399 9.9501 18.6399 10.0999 18.65H18.6099Z" fill="#E30613"/>
<path d="M18.61 23.46H27.1C27.2532 23.45 27.4068 23.45 27.56 23.46C27.7642 23.4752 27.9551 23.5672 28.0943 23.7175C28.2334 23.8678 28.3105 24.0652 28.31 24.27C28.3054 24.473 28.2247 24.6668 28.0839 24.8131C27.9432 24.9594 27.7526 25.0475 27.55 25.06C27.4135 25.07 27.2764 25.07 27.1399 25.06H10.06C9.89058 25.0801 9.71937 25.0801 9.54997 25.06C9.36456 25.0306 9.19658 24.9336 9.07841 24.7878C8.96024 24.6419 8.90023 24.4575 8.90996 24.27C8.90278 24.0816 8.96508 23.8971 9.08488 23.7515C9.20469 23.6058 9.3737 23.5093 9.55998 23.48C9.72964 23.4648 9.90033 23.4648 10.07 23.48L18.61 23.46Z" fill="#E30613"/>
<path d="M12.9398 28.3199H16.0298C16.6198 28.3199 17.0298 28.6399 17.0298 29.1299C17.0298 29.6199 16.6698 29.93 16.0298 29.93H9.85986C9.25986 29.93 8.85986 29.6199 8.85986 29.1299C8.85986 28.6399 9.21986 28.3199 9.85986 28.3199H12.9398Z" fill="#E30613"/>
</svg>
