<svg width="60" height="59" viewBox="0 0 60 59" fill="none" xmlns="http://www.w3.org/2000/svg">
<path d="M59.2299 18.46C58.3033 16.2198 56.5429 14.4271 54.32 13.46C52.3434 12.5582 50.2183 12.026 48.0499 11.89C45.219 11.6559 42.3698 11.7802 39.57 12.26C39.15 12.33 38.67 12.41 38.57 13.04C38.3146 14.4325 37.817 15.7693 37.0999 16.9899C35.4134 19.9593 33.3423 22.693 30.94 25.1199C29.9007 26.1664 29.0393 27.3757 28.3899 28.7C28.2016 29.0722 27.9912 29.4328 27.7599 29.78L27.6699 29.91C27.5649 30.1112 27.3906 30.2676 27.1792 30.3503C26.9678 30.433 26.7336 30.4365 26.5199 30.36C26.0607 30.2521 25.5915 30.1917 25.1199 30.1799C23.5899 30.0999 23.5899 30.1 23.3699 28.52V28.2399V28.1799C23.2341 26.5287 23.6759 24.8816 24.6199 23.52C25.0099 22.94 24.9699 22.6699 24.3999 22.2499L24.2299 22.1299L24.06 22.01C22.1442 20.7202 20.6089 18.9409 19.6135 16.857C18.6182 14.7731 18.1991 12.4607 18.3999 10.16C18.4699 8.86998 18.3999 8.81999 17.1399 8.60999H17.0299C15.0265 8.34992 13.1008 7.66828 11.3799 6.60999C10.4676 6.07241 9.77532 5.22906 9.42568 4.22956C9.07604 3.23006 9.09163 2.139 9.46987 1.14997C9.51861 1.01044 9.53585 0.861825 9.52028 0.714849C9.50472 0.567874 9.45679 0.426158 9.3799 0.299932C9.26324 0.210855 9.12845 0.148607 8.98501 0.117498C8.84156 0.0863899 8.69303 0.0871908 8.54995 0.11994C7.31006 0.372665 6.13356 0.871845 5.09023 1.58784C4.0469 2.30383 3.15798 3.22208 2.47622 4.28809C1.79445 5.3541 1.33372 6.54615 1.12136 7.79358C0.908994 9.04102 0.949268 10.3184 1.23989 11.5499C1.26897 11.7696 1.35555 11.9778 1.49074 12.1533C1.62593 12.3289 1.80496 12.4657 2.00991 12.5499C3.59565 13.2911 5.06994 14.2504 6.38991 15.4C9.93643 18.5437 12.6794 22.4902 14.3899 26.91C14.5099 27.19 14.6199 27.48 14.7299 27.78L14.8599 28.11L12.7299 27.84C12.8599 27.19 12.89 26.84 12.68 26.59C12.47 26.34 11.9699 26.37 11.0099 26.53V26.3699C11.0099 26.1799 11.0099 26.01 11.0099 25.83C11.0003 25.6257 10.9804 25.4222 10.95 25.22V25.0599C10.88 24.4399 10.7299 24.1199 10.4699 24.0599C10.2099 23.9999 9.8799 24.0599 9.3799 24.4299C8.18636 25.3915 7.30007 26.6811 6.82998 28.14C6.0322 30.6006 5.69325 33.1869 5.82998 35.77V35.95C5.8319 36.2348 5.93263 36.5102 6.11501 36.7291C6.29739 36.9479 6.55011 37.0967 6.82998 37.15L7.45998 37.28C7.65848 37.306 7.85539 37.3428 8.04995 37.39C8.18514 37.4432 8.32949 37.469 8.47475 37.4661C8.62001 37.4632 8.7633 37.4316 8.89626 37.373C9.02922 37.3144 9.14923 37.2301 9.24941 37.1249C9.34959 37.0197 9.42789 36.8956 9.47988 36.76C9.75938 36.1728 10.2181 35.6896 10.7899 35.3799C11.6229 34.9022 12.2763 34.1646 12.6499 33.28C12.7001 33.1994 12.7672 33.1308 12.8467 33.079C12.9262 33.0272 13.016 32.9934 13.1099 32.98C14.3628 32.9898 15.6021 33.2411 16.7599 33.72C16.925 33.7742 17.0712 33.8746 17.1811 34.0093C17.2909 34.144 17.3599 34.3073 17.3799 34.48C17.742 36.9102 18.9073 39.1491 20.69 40.84C20.7489 40.9876 20.7489 41.1523 20.69 41.2999C20.36 42.2999 19.99 43.4 19.56 44.6C19.4069 44.9557 19.3602 45.3482 19.4259 45.7299C19.4916 46.1115 19.6667 46.4659 19.93 46.7499L20.0099 46.86C20.1875 47.0611 20.3544 47.2713 20.5099 47.4899C20.7055 47.7773 20.9638 48.0166 21.2652 48.1898C21.5665 48.363 21.9032 48.4656 22.2499 48.4899C22.3948 48.519 22.5336 48.5732 22.6599 48.65L22.7899 48.72C22.4132 48.9976 22.1155 49.3687 21.926 49.7966C21.7366 50.2245 21.6622 50.6945 21.71 51.16C21.71 51.36 21.71 51.5299 21.71 51.6799C21.71 52.6799 21.71 52.76 23.06 53.1L23.2799 53.16C23.9799 53.34 24.2099 53.16 24.4199 52.48C24.4199 52.36 24.4999 52.2399 24.5499 52.1199V52.3799C24.4982 52.7189 24.5433 53.0655 24.68 53.3799C24.9726 53.7311 25.3621 53.9885 25.7999 54.1199L26.1499 54.27C26.2504 54.3159 26.3594 54.3396 26.4699 54.3396C26.5803 54.3396 26.6895 54.3159 26.7899 54.27C26.9967 54.1553 27.1561 53.971 27.2399 53.7499C28.7441 55.6305 30.8239 56.9654 33.1599 57.5499C34.4677 57.8759 35.8123 58.0305 37.1599 58.01C37.7099 58.01 38.23 58.01 38.71 58.01C40.4785 57.9491 42.1897 57.3682 43.6299 56.34C43.8199 56.19 44.0199 56.05 44.2199 55.91C44.7399 55.54 45.2699 55.16 45.7899 54.76C46.6215 54.1904 47.3104 53.4365 47.803 52.5571C48.2956 51.6778 48.5785 50.6966 48.6299 49.6899V49.07C48.6299 48.4899 48.7 47.8999 48.69 47.3099C48.7249 47.148 48.7029 46.9789 48.6277 46.8312C48.5525 46.6836 48.4287 46.5664 48.2771 46.4994C48.1255 46.4324 47.9556 46.4198 47.7958 46.4636C47.636 46.5075 47.4961 46.605 47.3999 46.7399C47.0399 47.0199 46.6999 47.34 46.3999 47.65L45.71 48.28C45.0799 48.8021 44.5612 49.4457 44.185 50.1724C43.8087 50.8991 43.5826 51.694 43.5199 52.51C43.5114 52.7479 43.4392 52.9792 43.3108 53.1798C43.1824 53.3803 43.0025 53.5427 42.7899 53.65C41.8715 54.234 40.8311 54.5991 39.7492 54.717C38.6672 54.8349 37.5726 54.7025 36.5499 54.33C35.6667 53.9727 34.9098 53.3606 34.3755 52.5717C33.8413 51.7828 33.5539 50.8527 33.5499 49.9C33.5499 49.6 33.5499 49.29 33.5499 48.98C33.5499 48.31 33.5499 47.6099 33.4899 46.9299C33.3099 44.4499 33.1099 41.63 31.6499 39.11C32.6162 38.0358 33.8683 37.2588 35.2599 36.8699C37.1711 36.3181 39.185 36.2222 41.1399 36.59C42.1999 36.77 42.35 36.67 42.59 35.59V35.3799C42.77 34.6599 42.94 33.91 43.19 33.21C44.64 29.15 47.1899 26.7599 50.9999 25.8799H51.06C52.44 25.5599 52.47 25.5299 52.69 24.0599C52.7594 23.085 53.1383 22.1577 53.7714 21.4131C54.4045 20.6684 55.2589 20.1454 56.21 19.92C56.9079 19.7828 57.6191 19.7257 58.33 19.7499H58.4199C58.9099 19.7499 59.21 19.6399 59.34 19.4399C59.47 19.2399 59.3999 18.89 59.2299 18.46ZM11.1099 8.01996C12.7054 8.92438 14.4494 9.53729 16.2599 9.82996L16.9199 9.95997C16.7053 12.5025 17.1645 15.0566 18.2512 17.3652C19.3379 19.6737 21.0137 21.6552 23.1099 23.11C21.6799 26.54 21.6099 27.1099 22.2699 30.1899H22.06C21.8489 30.2638 21.6251 30.2948 21.4019 30.2811C21.1786 30.2673 20.9604 30.2092 20.7599 30.11C20.352 29.8434 19.9073 29.6379 19.44 29.4999C19.1213 29.4171 18.8336 29.2436 18.6117 29.0004C18.3898 28.7572 18.2433 28.4548 18.19 28.1299C17.87 27.1299 17.4899 26.07 17.1199 25.07L16.7 23.9399C16.6682 23.8086 16.6102 23.6851 16.5294 23.5768C16.4487 23.4686 16.3467 23.3778 16.2299 23.3099C16.1573 23.2948 16.0825 23.2948 16.0099 23.3099C15.9035 23.3166 15.7989 23.3402 15.7 23.3799C15.08 23.6399 15.2799 24.19 15.4099 24.52L16.5199 27.57L16.82 28.41L16.8799 28.59C16.5399 28.59 16.3999 28.39 16.2699 28.03C14.6172 23.0142 11.7526 18.4837 7.92995 14.84C6.54891 13.5176 4.97825 12.4087 3.26992 11.5499C3.03586 11.4605 2.83376 11.3034 2.68947 11.0985C2.54519 10.8937 2.46535 10.6505 2.45998 10.4C2.28307 9.18613 2.38764 7.94785 2.76565 6.78089C3.14365 5.61393 3.7849 4.54956 4.63991 3.66999C5.54368 2.77251 6.63724 2.08909 7.83999 1.66999C7.6326 2.93911 7.8384 4.24125 8.42715 5.38453C9.01589 6.5278 9.9563 7.45169 11.1099 8.01996ZM30.1099 38.6C30.0363 38.7314 29.9977 38.8794 29.9977 39.03C29.9977 39.1805 30.0363 39.3286 30.1099 39.46C31.0384 40.68 31.5817 42.1493 31.6699 43.6799C31.9299 45.8799 32.0399 48.1199 32.0999 49.82C32.1284 51.2058 32.6117 52.5439 33.4755 53.6281C34.3392 54.7123 35.5354 55.4825 36.8799 55.82C38.6987 56.2361 40.6015 56.0825 42.33 55.3799C40.8276 56.2809 39.071 56.6639 37.33 56.47C34.52 56.28 32.3299 54.79 30.7799 51.89C30.1901 50.757 29.6886 49.5801 29.2799 48.3699C29.1499 48.0199 29.0199 47.6699 28.8799 47.3699C28.8288 47.1327 28.8288 46.8872 28.8799 46.65C28.8799 46.55 28.8799 46.46 28.8799 46.36C28.8708 46.2635 28.8708 46.1664 28.8799 46.07C28.8838 45.9967 28.8838 45.9233 28.8799 45.85C28.9599 45.3 28.76 44.9899 28.32 44.9299H28.18C27.9 44.9299 27.5899 45.07 27.4999 45.65C27.3099 46.92 27.1099 48.19 26.9099 49.46C26.9099 49.6 26.91 49.7399 26.84 49.8699V49.96H26.19C25.6615 49.935 25.1329 50.0061 24.6299 50.17C24.1841 50.3895 23.7865 50.6954 23.46 51.07L23.1199 51.41C23.0369 51.2332 22.9939 51.0403 22.9939 50.845C22.9939 50.6497 23.0369 50.4568 23.1199 50.28C23.2459 50.087 23.4159 49.9266 23.6157 49.8119C23.8156 49.6972 24.0397 49.6314 24.2699 49.6199H24.4799C24.5796 49.6102 24.6802 49.6102 24.7799 49.6199C24.9429 49.6384 25.1079 49.6191 25.2622 49.5636C25.4165 49.5081 25.556 49.4179 25.6699 49.2999C25.8499 49.0699 25.8599 48.71 25.6699 48.16C25.5722 47.8006 25.3984 47.4664 25.1603 47.18C24.9222 46.8936 24.6254 46.6617 24.2899 46.4999C23.7855 46.1647 23.4279 45.6497 23.2899 45.0599C23.1039 44.5497 23.1219 43.9873 23.34 43.4899C23.5634 43.1788 23.8778 42.9447 24.2399 42.82C24.6268 42.7064 25.0211 42.6195 25.4199 42.5599L26.1399 42.42C26.3637 42.361 26.5994 42.3642 26.8214 42.4294C27.0435 42.4947 27.2436 42.6194 27.3999 42.79L27.8899 43.2499L28.5199 43.85C28.6724 44.0184 28.8834 44.1221 29.1099 44.14C29.2012 44.1326 29.29 44.1067 29.3709 44.0637C29.4517 44.0207 29.5229 43.9615 29.58 43.89C29.6432 43.8196 29.691 43.7368 29.7204 43.6469C29.7498 43.557 29.76 43.462 29.7506 43.3679C29.7412 43.2738 29.7123 43.1826 29.6657 43.1003C29.6191 43.0181 29.5558 42.9464 29.4799 42.89L29.1399 42.5599C28.7999 42.2399 28.45 41.8999 28.08 41.5599C27.7967 41.3184 27.4624 41.1444 27.1021 41.0508C26.7418 40.9573 26.3649 40.9467 25.9999 41.02L24.46 41.26L23.84 41.35C23.49 41.08 23.1099 40.84 22.7399 40.6C21.8718 40.109 21.0995 39.4653 20.46 38.7C19.7203 37.6145 19.2317 36.3779 19.0299 35.08L19.34 35.35C19.82 35.78 20.17 35.61 20.34 35.35C20.4064 35.2889 20.4592 35.2147 20.4954 35.1321C20.5315 35.0494 20.5502 34.9601 20.5499 34.8699C20.5413 34.7556 20.5093 34.6444 20.456 34.5429C20.4026 34.4414 20.3291 34.352 20.2399 34.28C18.5757 32.6586 16.3963 31.6714 14.08 31.4899C13.2676 31.4347 12.4523 31.4347 11.6399 31.4899H10.82C10.5342 31.4831 10.2561 31.5829 10.0399 31.77C9.98123 31.8476 9.9394 31.9366 9.91701 32.0313C9.89463 32.126 9.89218 32.2243 9.90993 32.32C9.92342 32.4975 10.006 32.6627 10.1399 32.78C10.3792 32.9171 10.6623 32.9565 10.93 32.89C10.93 32.89 10.93 32.89 11.08 32.95L10.7699 33.26C10.497 33.5544 10.1878 33.8131 9.84987 34.03C9.2168 34.3523 8.70219 34.8669 8.3799 35.4999C8.1999 35.8599 7.99993 35.8099 7.65993 35.6899C7.5466 35.6377 7.42451 35.6073 7.29995 35.6C7.19762 35.4555 7.13545 35.2864 7.11989 35.11V34.73C7.02493 32.6533 7.3062 30.5766 7.94997 28.6C8.20104 28.0028 8.49515 27.4245 8.82998 26.8699C8.96998 26.6099 9.1199 26.36 9.2499 26.1C9.30172 26.0111 9.36205 25.9273 9.42995 25.85C9.52186 26.1498 9.53519 26.4682 9.46865 26.7746C9.40211 27.081 9.25792 27.3653 9.04995 27.6C8.26522 28.5148 7.84193 29.6848 7.85988 30.89C7.83949 31.1042 7.90019 31.3182 8.02993 31.4899C8.16138 31.6173 8.33691 31.6889 8.51992 31.6899C9.00992 31.6899 9.14998 31.28 9.20998 30.97L9.26992 30.71C9.36343 30.1266 9.5141 29.5538 9.71987 28.9999C9.83856 28.712 10.0208 28.4546 10.2528 28.2468C10.4848 28.0391 10.7607 27.8863 11.06 27.7999C10.99 27.9799 10.9299 28.1499 10.8599 28.3099C10.6799 28.8099 10.5 29.31 10.31 29.72C10.19 30.01 9.95993 30.54 10.5299 30.83C10.6155 30.8657 10.7072 30.8841 10.7999 30.8841C10.8926 30.8841 10.9844 30.8657 11.07 30.83C11.1912 30.7749 11.2993 30.6947 11.3872 30.5947C11.4752 30.4947 11.5409 30.3772 11.58 30.2499C11.58 30.1899 11.5799 30.14 11.6499 30.08V29.98C12.1499 28.9 12.15 28.9 13.33 29.1C15.7214 29.4817 18.037 30.2412 20.19 31.35C20.5848 31.5716 21.043 31.6526 21.4899 31.58C23.0972 31.2929 24.7426 31.2929 26.3499 31.58C26.7117 31.6868 27.0977 31.6798 27.4555 31.56C27.8132 31.4402 28.1254 31.2132 28.3499 30.91C28.8004 30.3516 29.1925 29.7484 29.5199 29.11C30.1016 27.9549 30.857 26.8959 31.7599 25.97C34.3258 23.3935 36.5202 20.4721 38.2799 17.29C38.6351 16.5663 38.9457 15.8215 39.21 15.0599C39.36 14.6399 39.53 14.2 39.7 13.78C39.77 13.62 39.9499 13.43 40.0499 13.42C43.4899 12.92 48.0499 12.5399 52.4999 14.0499C54.4284 14.6296 56.092 15.8684 57.2 17.5499C57.29 17.6899 57.36 17.83 57.43 17.96L56.71 18.11C56.1289 18.2003 55.5567 18.3408 54.9999 18.53C52.8099 19.34 51.5499 21.03 51.1299 23.71C51.1299 24.02 51.0599 24.1699 50.7399 24.2399C46.4199 25.1399 43.4799 27.81 41.7399 32.4C41.5899 32.79 41.4699 33.2 41.3599 33.59V33.65C41.2699 33.93 41.1999 34.22 41.1199 34.51L41.0399 34.84L40.2699 34.79C39.6899 34.79 39.0799 34.72 38.4899 34.72C35.8483 34.6048 33.2569 35.4662 31.21 37.14C30.7907 37.5871 30.4187 38.0764 30.0999 38.6H30.1099ZM28.2 50.33V50.1299C28.9683 52.0912 30.1055 53.8869 31.5499 55.42C29.7469 54.5867 28.2701 53.1803 27.3499 51.42C28.0299 51.32 28.11 50.82 28.19 50.33H28.2ZM24.31 48.1199L24.2399 48.21C24.0599 48.21 23.9699 48.05 23.8499 47.83C23.8499 47.83 23.8499 47.75 23.7799 47.7L24.31 48.1199ZM20.84 44.96C21.11 44.12 21.39 43.3099 21.7 42.4399C21.8 42.1699 21.8899 41.89 21.9899 41.61L22.6399 42.04C22.1385 42.7868 21.8878 43.6738 21.9237 44.5726C21.9597 45.4715 22.2806 46.3355 22.84 47.04C21.98 47.11 21.54 46.4799 21.08 45.8099L20.94 45.6C20.824 45.4081 20.7847 45.1795 20.83 44.96H20.84ZM44.58 53.76C44.7248 53.4456 44.8063 53.1058 44.82 52.76V52.58C44.8978 51.8134 45.1466 51.074 45.5481 50.4163C45.9496 49.7587 46.4936 49.1995 47.1399 48.78C47.2221 49.7676 47.0246 50.7584 46.5701 51.639C46.1156 52.5197 45.4225 53.2547 44.57 53.76H44.58Z" fill="#E30613"/>
<path d="M55.8099 28.0199C55.6252 27.8952 55.4 27.8451 55.1799 27.8799C52.9537 28.1205 50.8572 29.0465 49.1799 30.53C49.0955 30.5786 49.0233 30.6458 48.9688 30.7265C48.9144 30.8072 48.8791 30.8993 48.8656 30.9957C48.8521 31.0922 48.8607 31.1904 48.8909 31.283C48.9212 31.3756 48.9721 31.46 49.0399 31.53C49.0937 31.6106 49.1646 31.6783 49.2475 31.7284C49.3305 31.7786 49.4235 31.8098 49.5199 31.8199C49.7036 31.8132 49.8783 31.7384 50.0098 31.61C51.5292 30.3006 53.4072 29.4783 55.3999 29.2499C55.5902 29.1973 55.7607 29.0894 55.8898 28.9399C55.9273 28.8975 55.9674 28.8574 56.0098 28.8199V28.7599C56.031 28.6295 56.0242 28.496 55.9897 28.3684C55.9552 28.2408 55.8939 28.122 55.8099 28.0199Z" fill="#E30613"/>
<path d="M27.29 22.32C27.4047 22.3895 27.5358 22.4275 27.67 22.43C27.786 22.4295 27.8997 22.3985 27.9999 22.34C28.1237 22.2608 28.2231 22.1487 28.2867 22.0162C28.3503 21.8837 28.3756 21.7361 28.3599 21.59L28.3 21.51C28.2171 21.3856 28.1159 21.2743 27.9999 21.18C27.8499 21.06 27.6899 20.95 27.5299 20.84C27.2981 20.6895 27.0775 20.5224 26.8699 20.34C26.0399 19.52 25.2299 18.67 24.3999 17.81C24.3269 17.7186 24.2361 17.6432 24.133 17.5882C24.0298 17.5331 23.9165 17.4997 23.8 17.49C23.722 17.4901 23.6449 17.5072 23.5741 17.54C23.5034 17.5728 23.4405 17.6206 23.3899 17.68C23.2964 17.8061 23.2364 17.9539 23.2154 18.1095C23.1944 18.2652 23.2132 18.4236 23.2699 18.57C24.3578 20.0655 25.7225 21.3385 27.29 22.32Z" fill="#E30613"/>
<path d="M46.1397 35.78C45.9945 35.7897 45.8541 35.836 45.7317 35.9147C45.6092 35.9934 45.5088 36.1019 45.4398 36.23C45.1098 37.23 44.8497 38.34 44.6197 39.23C44.5894 39.3278 44.5799 39.4308 44.592 39.5325C44.6041 39.6341 44.6374 39.7321 44.6898 39.82C44.7456 39.8978 44.8171 39.963 44.8999 40.0113C44.9826 40.0595 45.0745 40.0898 45.1698 40.1H45.3098C45.6598 40.1 45.8797 39.89 45.9897 39.46C46.1497 38.7934 46.3197 38.1267 46.4997 37.46L46.6397 36.89C46.6397 36.79 46.6897 36.7 46.7297 36.57L46.8098 36.25C46.7583 36.2084 46.7113 36.1616 46.6698 36.11C46.54 35.9383 46.3511 35.8207 46.1397 35.78Z" fill="#E30613"/>
<path d="M21.2599 12.51C21.0499 12.59 20.7799 12.99 20.8499 13.21C21.1308 14.2267 21.4646 15.2281 21.8499 16.21C21.9199 16.39 22.2599 16.51 22.4899 16.51H22.6099C22.7799 16.51 22.9099 16.31 23.0099 16.18L23.0999 16.06V16L22.83 15.2C22.57 14.38 22.31 13.61 22.02 12.86C21.96 12.56 21.4699 12.43 21.2599 12.51Z" fill="#E30613"/>
<path d="M20.6299 10.02C20.6871 10.0858 20.7578 10.1387 20.8372 10.1749C20.9165 10.2111 21.0028 10.2299 21.09 10.23H21.17C21.59 10.23 21.8199 9.95 21.8699 9.41C21.8699 9.28 21.8699 9.15 21.8699 9.03C21.9097 8.76147 21.9097 8.48853 21.8699 8.22C21.8411 8.06851 21.7734 7.92711 21.6735 7.80966C21.5736 7.69221 21.4449 7.60268 21.3 7.54996C21.06 7.49996 20.67 7.79001 20.56 8.04001C20.475 8.27442 20.4278 8.52079 20.42 8.76999C20.42 8.85999 20.42 8.93998 20.42 9.00998V9.32999C20.4029 9.45334 20.4129 9.57895 20.4491 9.69809C20.4854 9.81722 20.547 9.92704 20.6299 10.02Z" fill="#E30613"/>
<path d="M47.9501 32.08C47.9116 32.0645 47.8686 32.0645 47.8301 32.08C47.4478 32.4952 47.1124 32.9513 46.8301 33.44C46.7701 33.56 46.9 33.7001 47.11 33.9201L47.23 34.05H47.2901C47.5341 34.0022 47.7639 33.8989 47.9616 33.7481C48.1593 33.5972 48.3196 33.4028 48.4301 33.18C48.5176 33.0704 48.5747 32.9398 48.5957 32.8011C48.6168 32.6624 48.6011 32.5207 48.5501 32.39C48.3839 32.2314 48.1757 32.1238 47.9501 32.08Z" fill="#E30613"/>
<path d="M41.58 15.95L41.92 14.88V14.82H41.8699C41.7919 14.7551 41.7184 14.6849 41.65 14.61C41.5209 14.4493 41.352 14.3251 41.16 14.25C41.0811 14.2278 40.9984 14.2226 40.9174 14.2346C40.8364 14.2467 40.759 14.2758 40.69 14.32C40.5997 14.3895 40.5246 14.4769 40.4696 14.5767C40.4145 14.6765 40.3806 14.7865 40.3699 14.9C39.9559 16.8878 39.1391 18.7698 37.9699 20.4299C36.1674 23.1209 34.1186 25.6384 31.8499 27.95C31.6299 28.18 31.21 28.62 31.69 29.11C31.8135 29.2469 31.9859 29.3295 32.17 29.34C32.3026 29.3179 32.4294 29.2693 32.5428 29.1972C32.6562 29.125 32.7539 29.0308 32.83 28.92L33.83 27.81C34.57 27 35.34 26.1599 36.06 25.2999C37.9577 23.1572 39.5371 20.7526 40.7499 18.16C41.0661 17.4388 41.3433 16.701 41.58 15.95Z" fill="#E30613"/>
<path d="M42.2999 17.97C42.4359 18.0604 42.5967 18.1059 42.7599 18.1H42.9698C44.3751 18.3741 45.6825 19.0167 46.7578 19.962C47.8332 20.9073 48.638 22.1214 49.09 23.48C49.17 23.71 49.3199 24.15 49.7599 24.15C49.8427 24.1636 49.9271 24.1636 50.0099 24.15C50.0967 24.1313 50.1783 24.0938 50.2491 24.0403C50.32 23.9867 50.3783 23.9184 50.4199 23.84C50.4703 23.7249 50.4963 23.6006 50.4963 23.475C50.4963 23.3494 50.4703 23.2251 50.4199 23.11C50.0286 21.9101 49.3994 20.8013 48.5699 19.85C46.9708 18.0672 44.785 16.9175 42.4099 16.61H42.3499L42.2299 16.72C42.0799 16.85 41.8999 17 41.8799 17.19C41.8926 17.3419 41.9364 17.4895 42.0087 17.6237C42.0809 17.7579 42.1801 17.8758 42.2999 17.97Z" fill="#E30613"/>
<path d="M41.54 28.08C41.5594 26.5087 41.2811 24.9479 40.7199 23.48C40.6299 23.3 40.3699 22.73 39.7199 22.98C39.6295 23.0206 39.5483 23.0792 39.4812 23.1523C39.4142 23.2253 39.3628 23.3112 39.33 23.4048C39.2973 23.4983 39.284 23.5976 39.2908 23.6965C39.2977 23.7954 39.3246 23.8919 39.3699 23.98C39.3699 24.09 39.4499 24.21 39.4799 24.32C39.6087 24.6449 39.7124 24.9792 39.79 25.32C40.2855 27.8554 40.1411 30.4744 39.3699 32.94C39.2646 33.2066 39.2646 33.5034 39.3699 33.77C39.4214 33.8463 39.4879 33.9113 39.5652 33.9612C39.6426 34.011 39.7293 34.0446 39.82 34.06H40.03C40.1432 34.0624 40.2545 34.0311 40.3499 33.97C40.4553 33.8826 40.5418 33.7745 40.6037 33.6524C40.6656 33.5303 40.7018 33.3967 40.71 33.26C40.95 32 41.18 30.73 41.41 29.47L41.67 28.06H41.57L41.54 28.08Z" fill="#E30613"/>
<path d="M8.03001 32.69C7.92209 32.6909 7.81559 32.7146 7.71739 32.7594C7.61919 32.8042 7.53155 32.8691 7.46007 32.95C7.40145 33.0196 7.35994 33.102 7.3391 33.1906C7.31825 33.2792 7.31865 33.3715 7.34007 33.46C7.39832 33.6727 7.51219 33.866 7.67003 34.02L7.83006 34.23H8.21007V34.18C8.26419 34.1051 8.32433 34.0349 8.39 33.97C8.55081 33.8224 8.66539 33.6314 8.71995 33.42C8.74209 33.3254 8.74092 33.2268 8.71654 33.1327C8.69215 33.0387 8.64538 32.9519 8.58006 32.88C8.50536 32.8137 8.41833 32.7629 8.32396 32.7303C8.22959 32.6977 8.12968 32.684 8.03001 32.69Z" fill="#E30613"/>
<path d="M7.40989 11.01C7.42651 11.1014 7.4628 11.1881 7.51634 11.2641C7.56987 11.3401 7.6393 11.4036 7.71983 11.45C7.82384 11.4957 7.93629 11.5193 8.0499 11.5193C8.16352 11.5193 8.27585 11.4957 8.37986 11.45C9.40334 11.1231 10.4978 11.0885 11.5399 11.35C12.5399 11.6 13.5398 11.95 14.4698 12.29L14.8399 12.42C14.9857 12.4817 15.1417 12.5156 15.2999 12.52C15.4223 12.5224 15.5426 12.4873 15.6445 12.4193C15.7464 12.3514 15.825 12.2539 15.8699 12.14C15.9137 12.0615 15.9408 11.9747 15.9494 11.8852C15.958 11.7957 15.948 11.7054 15.9199 11.62C15.8242 11.4053 15.6483 11.2367 15.4299 11.15C13.7773 10.333 11.9795 9.85043 10.1399 9.73001L9.49986 9.84C9.00986 9.93 8.49986 10.02 7.99986 10.13C7.89594 10.145 7.79619 10.1812 7.70676 10.2362C7.61734 10.2913 7.54011 10.364 7.47984 10.45C7.42749 10.5323 7.39416 10.6253 7.38206 10.7221C7.36995 10.819 7.37943 10.9173 7.40989 11.01Z" fill="#E30613"/>
<path d="M6.40991 5.07998C6.16076 5.11943 5.93572 5.25159 5.77991 5.44997C4.88912 6.43623 4.38476 7.71124 4.35986 9.04L4.47986 9.62996C4.55986 10.09 4.6499 10.55 4.7699 11C4.78931 11.101 4.83321 11.1958 4.89771 11.276C4.9622 11.3562 5.04534 11.4194 5.13989 11.46C5.20896 11.4762 5.28079 11.4762 5.34985 11.46C5.45793 11.4573 5.56402 11.4299 5.65991 11.38C5.84421 11.2123 5.97323 10.9926 6.02991 10.75V10.63C6.04861 10.5857 6.05823 10.538 6.05823 10.4899C6.05823 10.4419 6.04861 10.3943 6.02991 10.35C6.02991 10.35 6.02991 10.2699 6.02991 10.2399C5.82061 9.56488 5.78983 8.84715 5.94055 8.15664C6.09127 7.46613 6.41834 6.8264 6.88989 6.29995C7.06444 6.13954 7.16869 5.91675 7.17993 5.67995C7.17252 5.59117 7.14741 5.50479 7.1062 5.4258C7.06499 5.34682 7.00852 5.27686 6.93994 5.21999C6.86824 5.15759 6.78306 5.11249 6.69116 5.08822C6.59926 5.06394 6.50308 5.06112 6.40991 5.07998Z" fill="#E30613"/>
</svg>
