<svg width="45" height="54" viewBox="0 0 45 54" fill="none" xmlns="http://www.w3.org/2000/svg">
<path d="M44.24 50.29C44.1408 49.4585 43.977 48.636 43.75 47.83C41.86 41.6 37.75 37.77 31.56 36.45C31.09 36.35 30.62 36.2999 30.12 36.2399L29.42 36.15H29.31V35.08C29.31 33.99 29.31 32.95 29.31 31.9C29.3447 31.6828 29.4544 31.4846 29.62 31.34L30.19 30.76C30.5 30.45 30.82 30.13 31.1 29.76C32.886 27.5092 33.824 24.7023 33.75 21.83C33.736 21.5112 33.8313 21.1972 34.02 20.94C35.6195 19.1963 36.5909 16.9685 36.7801 14.61C37.0304 11.878 36.4431 9.13443 35.0962 6.74434C33.7493 4.35424 31.7067 2.43087 29.24 1.23C27.6299 0.334127 25.7972 -0.0826196 23.958 0.0290064C22.1189 0.140632 20.3499 0.775979 18.86 1.86C18.6563 1.97368 18.4194 2.01258 18.19 1.96999C17.89 1.96999 17.59 1.86995 17.3 1.80995C16.8291 1.70506 16.3512 1.63491 15.87 1.59999C14.4167 1.52053 12.9662 1.80114 11.6474 2.41695C10.3285 3.03275 9.18215 3.96466 8.31002 5.12996C8.19018 5.25123 8.11656 5.41065 8.10195 5.58052C8.08734 5.75039 8.13263 5.91999 8.23 6.05995C8.31669 6.20487 8.4498 6.31629 8.60769 6.37617C8.76558 6.43606 8.93901 6.44094 9.1 6.38997L9.35 6.32997L9.66 6.25996V6.46999C9.67392 6.50533 9.67392 6.54463 9.66 6.57997C9.62099 6.64861 9.57404 6.71239 9.52004 6.76997C8.34214 8.06212 7.6371 9.71544 7.52004 11.46C7.1975 15.459 8.25643 19.4476 10.52 22.76C10.6961 23.0214 10.8121 23.3185 10.86 23.63C11.204 26.5946 12.628 29.3287 14.86 31.31C15.0642 31.509 15.1887 31.7757 15.21 32.06C15.21 32.75 15.21 33.46 15.21 34.14V36.14L14.69 36.2C11.6453 36.4166 8.75337 37.6169 6.45003 39.6199C3.17003 42.52 1.38004 46.43 0.960044 51.56C0.871003 52.0143 0.950862 52.4855 1.18471 52.8851C1.41857 53.2847 1.79028 53.5851 2.23 53.73H43.23C43.674 53.5665 44.0411 53.2432 44.2594 52.8233C44.4776 52.4035 44.5313 51.9173 44.41 51.46C44.35 51.07 44.29 50.68 44.24 50.29ZM15.24 52.15H2.54V52.01C2.59453 48.5439 3.75807 45.1865 5.86001 42.4299C6.96902 41.0221 8.3705 39.8719 9.96755 39.0587C11.5646 38.2455 13.3192 37.7887 15.11 37.72H15.24V52.15ZM31.13 25.15C30.4463 25.802 29.5348 26.1609 28.59 26.15H28.54C27.5746 26.1433 26.6514 25.7535 25.9735 25.0662C25.2955 24.3789 24.9184 23.4504 24.925 22.485C24.9316 21.5196 25.3215 20.5964 26.0088 19.9184C26.6961 19.2405 27.6247 18.8633 28.59 18.8699C29.5564 18.8805 30.479 19.2738 31.1557 19.9637C31.8325 20.6536 32.208 21.5836 32.2 22.5499C32.2019 23.0348 32.1074 23.5153 31.922 23.9633C31.7366 24.4114 31.464 24.8182 31.12 25.16L31.13 25.15ZM32.54 18.6799V19.14L32.34 18.95C31.6862 18.3 30.8779 17.8269 29.991 17.575C29.1042 17.3231 28.1679 17.3007 27.27 17.51L26.76 17.61L27.17 17.28C28.9019 16.1174 30.2463 14.4631 31.0301 12.53L31.1 12.2999L31.25 12.4899C32.66 14.3899 32.59 16.48 32.5301 18.69L32.54 18.6799ZM11.26 13.6799C11.1039 13.7458 10.969 13.8535 10.8702 13.9911C10.7714 14.1287 10.7125 14.291 10.7 14.46C10.5686 15.1697 10.4916 15.8885 10.47 16.61C10.47 16.9 10.47 17.18 10.42 17.47C10.4099 17.6532 10.4099 17.8368 10.42 18.02V18.38L10.05 18.46V18.34L9.81002 17.41C9.63002 16.75 9.45002 16.06 9.31002 15.41C8.86951 13.6027 8.92133 11.7104 9.46004 9.92995C9.7003 9.13727 10.1113 8.40689 10.6641 7.79011C11.217 7.17334 11.8982 6.68521 12.66 6.36C12.928 6.21891 13.1345 5.98387 13.24 5.69997C13.2783 5.54618 13.2599 5.38376 13.1883 5.24239C13.1167 5.10101 12.9966 4.99009 12.85 4.92995C12.61 4.79995 12.37 4.68996 12.1 4.56996L11.74 4.40999L11.54 4.30995L11.81 4.11995L12.07 3.94997C12.9705 3.42513 13.9781 3.11112 15.0172 3.03145C16.0564 2.95178 17.1001 3.1085 18.07 3.48994C18.339 3.61429 18.6391 3.65509 18.9315 3.60695C19.2239 3.55881 19.4951 3.424 19.71 3.21999C20.9565 2.22709 22.4728 1.6322 24.0618 1.51271C25.6509 1.39322 27.2391 1.75461 28.62 2.54994C30.6013 3.48141 32.2872 4.9414 33.4923 6.76924C34.6973 8.59708 35.3747 10.722 35.45 12.91C35.5264 14.4828 35.2103 16.0499 34.5301 17.47L34.33 17.82V17.4299C34.33 17.1399 34.26 16.86 34.23 16.58C34.17 15.96 34.1 15.32 33.99 14.7C33.8103 13.2569 33.0968 11.9333 31.99 10.9899C31.8131 10.8048 31.5906 10.6696 31.3449 10.5976C31.0991 10.5256 30.8389 10.5195 30.59 10.58C30.3563 10.6957 30.1562 10.8696 30.0091 11.085C29.8619 11.3005 29.7727 11.5501 29.75 11.81C29.6499 12.2519 29.4848 12.6765 29.26 13.07C28.6166 14.1447 27.7463 15.0662 26.71 15.77L26.6 15.84L26.54 15.73C26.32 15.37 26.11 15 25.89 14.63C25.43 13.83 24.95 12.99 24.41 12.23C24.009 11.6476 23.485 11.1603 22.8751 10.8026C22.2651 10.4449 21.5841 10.2256 20.88 10.16C19.9497 10.1059 19.0208 10.2882 18.18 10.69C16.3781 11.4536 14.9437 12.888 14.18 14.69C14.18 14.78 14.1 14.86 14.06 14.97L13.89 15.35L13.76 15.2399L13.33 14.89C13.02 14.64 12.73 14.4 12.45 14.13C12.3155 13.9479 12.128 13.8118 11.9133 13.7402C11.6985 13.6687 11.4669 13.6651 11.25 13.73L11.26 13.6799ZM12.02 19.11V15.91L12.21 16.03L12.51 16.22L13.17 16.63C13.3477 16.7476 13.5487 16.8255 13.7592 16.8583C13.9698 16.8911 14.185 16.878 14.39 16.82C14.5887 16.7238 14.763 16.5839 14.8999 16.4107C15.0367 16.2375 15.1325 16.0355 15.18 15.82C15.4905 14.8541 16.033 13.979 16.76 13.2712C17.4869 12.5634 18.3762 12.0446 19.35 11.76C19.8732 11.5802 20.4359 11.5485 20.9759 11.6685C21.5159 11.7885 22.0122 12.0555 22.41 12.44C23.5469 13.5432 24.3804 14.9209 24.83 16.44C24.8895 16.7387 25.0361 17.0132 25.2515 17.2285C25.4669 17.4439 25.7413 17.5906 26.04 17.65L26.36 17.72L26.08 17.89C24.9202 18.5327 24.0322 19.5734 23.58 20.82V20.91H21.1V20.82C20.8131 19.9933 20.3245 19.2512 19.6784 18.661C19.0324 18.0708 18.2493 17.6511 17.4 17.44C16.4975 17.2304 15.5568 17.2507 14.6641 17.4987C13.7714 17.7468 12.9551 18.2149 12.29 18.86L12.02 19.11ZM12.36 22.3699C12.3913 21.3964 12.8022 20.4738 13.5048 19.7992C14.2074 19.1246 15.146 18.7516 16.12 18.76C17.1103 18.7758 18.0543 19.1816 18.7471 19.8894C19.4399 20.5971 19.8254 21.5496 19.82 22.54C19.7992 23.5251 19.3945 24.4632 18.6922 25.1543C17.9898 25.8454 17.0454 26.235 16.06 26.2399C15.566 26.2391 15.0771 26.1396 14.622 25.9473C14.167 25.755 13.7549 25.4737 13.41 25.1199C13.0642 24.7619 12.7926 24.339 12.6107 23.8757C12.4288 23.4123 12.3402 22.9177 12.35 22.42L12.36 22.3699ZM13.97 27.67L13.85 27.44H14.11L14.62 27.54C14.969 27.621 15.3232 27.6778 15.68 27.71C17.0388 27.8207 18.3861 27.3881 19.4265 26.5071C20.4668 25.6261 21.1154 24.3684 21.23 23.01C21.226 22.9348 21.2371 22.8596 21.2628 22.7888C21.2885 22.718 21.3283 22.6531 21.3796 22.598C21.4309 22.543 21.4929 22.4988 21.5617 22.4682C21.6305 22.4376 21.7048 22.4212 21.7801 22.42H21.89H22.31C23.18 22.42 23.31 22.5 23.38 23.36C23.4844 24.0777 23.7409 24.7649 24.1323 25.3754C24.5238 25.9859 25.0413 26.5057 25.65 26.9C26.2782 27.3145 26.9879 27.5897 27.7313 27.707C28.4748 27.8243 29.2347 27.781 29.96 27.58L30.2801 27.48L30.69 27.36L30.62 27.58C29.96 29.9 26.01 32.3299 22.62 32.4899H22.21C20.538 32.4848 18.8965 32.0418 17.4491 31.2049C16.0016 30.368 14.7987 29.1665 13.96 27.72L13.97 27.67ZM20.97 42.2L21.12 42.26L21.52 42.4899C21.7572 42.6591 22.0316 42.7689 22.32 42.81C22.6043 42.7711 22.8751 42.6648 23.11 42.5L23.54 42.28L23.69 42.22L23.89 43.22C24.07 44.12 24.26 45.0599 24.44 45.9899C24.4658 46.2 24.4084 46.4118 24.2801 46.58C23.6901 47.19 23.16 47.71 22.66 48.16C22.5662 48.233 22.4486 48.2687 22.33 48.26C22.2051 48.2699 22.0808 48.2344 21.98 48.16C21.49 47.72 20.98 47.23 20.39 46.61C20.3228 46.5303 20.2722 46.4378 20.2412 46.3382C20.2103 46.2386 20.1997 46.1338 20.21 46.03C20.39 45.03 20.58 44.1 20.77 43.17L20.97 42.2ZM20.89 39.6199L21.02 39.53L21.33 39.32C21.59 39.15 21.83 38.98 22.08 38.83C22.1581 38.7927 22.2435 38.7733 22.33 38.7733C22.4166 38.7733 22.502 38.7927 22.58 38.83L23.36 39.34L23.79 39.63L23.67 39.7399L22.38 40.9299L22.29 41.02L20.89 39.6199ZM22.4 36.92H22.13C21.6986 36.9083 21.2695 36.8513 20.85 36.75C20.63 36.75 20.41 36.66 20.18 36.63L16.87 36.16V32.6199L17.06 32.71C18.6832 33.5766 20.495 34.03 22.335 34.03C24.1751 34.03 25.9868 33.5766 27.61 32.71L27.8 32.6199V36.16H27.69L26.17 36.39C24.88 36.65 23.61 36.83 22.35 36.97L22.4 36.92ZM16.85 37.86V37.72L20.14 38.2L19.5 38.7C19.3647 38.7879 19.25 38.9039 19.1637 39.0403C19.0774 39.1767 19.0215 39.33 19 39.4899C18.9958 39.637 19.0241 39.7831 19.0829 39.9179C19.1417 40.0527 19.2295 40.173 19.34 40.27C19.4785 40.3915 19.5773 40.5517 19.6237 40.73C19.67 40.9083 19.6618 41.0964 19.6 41.27C19.6 41.49 19.51 41.72 19.46 41.94C19.32 42.62 19.17 43.32 18.98 44.02L18.89 44.35L18.74 44.04L18.38 43.32C17.3552 41.701 16.8076 39.826 16.8 37.91L16.85 37.86ZM16.85 52.09V50.16L18.95 52.09H16.85ZM27.7801 52.09H25.67L27.7801 50.09V52.09ZM27.7801 47.2C27.7539 47.3801 27.6853 47.5515 27.58 47.7C26.4219 49.572 24.7091 51.0365 22.68 51.89C22.5597 51.9399 22.4302 51.9638 22.3 51.96C22.1633 51.9642 22.0272 51.9404 21.9 51.89C19.8702 51.0327 18.1576 49.5648 17 47.69C16.902 47.5609 16.8368 47.4099 16.81 47.25C16.81 46.56 16.81 45.88 16.81 45.25V44.4899L17.09 44.4L17.25 44.7L17.49 45.16C18.4718 46.9319 19.814 48.4785 21.43 49.7C21.6611 49.9224 21.9693 50.0466 22.29 50.0466C22.6107 50.0466 22.919 49.9224 23.15 49.7C24.8658 48.4058 26.2672 46.7411 27.25 44.83C27.25 44.75 27.33 44.66 27.38 44.58C27.4166 44.5386 27.4658 44.5104 27.52 44.5H27.59H27.76V45.35C27.75 45.94 27.75 46.61 27.75 47.27L27.7801 47.2ZM26.49 42.81C26.31 43.19 26.13 43.59 25.96 43.98V44.06H25.63L25.47 43.26C25.3 42.45 25.14 41.63 24.98 40.82C24.98 40.67 25.08 40.53 25.18 40.42C25.3194 40.2923 25.4319 40.1381 25.5109 39.9664C25.5899 39.7947 25.6338 39.6089 25.64 39.42C25.64 39.14 25.39 38.86 24.96 38.54L24.85 38.44L24.56 38.16L27.7801 37.7V37.84C27.8233 39.6081 27.3731 41.3533 26.48 42.88L26.49 42.81ZM29.34 52.07V37.77H29.47C32.8678 37.8739 36.0933 39.2895 38.47 41.72C41.1829 44.4699 42.7487 48.1484 42.85 52.01V52.14L29.34 52.07Z" fill="#E30613"/>
<path d="M18.39 14.91C18.3799 15.1306 18.4431 15.3483 18.5697 15.5292C18.6964 15.7101 18.8793 15.844 19.0901 15.91L19.45 16.02C19.7493 16.0615 20.0231 16.2108 20.22 16.44C20.3214 16.7314 20.3214 17.0486 20.22 17.34C20.2107 17.4698 20.2107 17.6002 20.22 17.73C20.22 17.73 20.22 17.79 20.22 17.82C20.2144 18.0113 20.2832 18.1974 20.4118 18.3391C20.5405 18.4808 20.719 18.5671 20.91 18.58C21.0977 18.6031 21.2871 18.5524 21.4382 18.4386C21.5893 18.3248 21.6903 18.1568 21.72 17.97C21.79 17.55 21.84 17.12 21.89 16.7L21.95 16.16C21.9635 15.9456 21.9075 15.7326 21.7904 15.5525C21.6734 15.3724 21.5014 15.2348 21.3 15.16H21.22C20.9983 15.0527 20.7674 14.9657 20.5301 14.9C20.3312 14.8702 20.1511 14.7657 20.0266 14.6078C19.9021 14.4498 19.8425 14.2503 19.86 14.05C19.86 13.9568 19.8414 13.8647 19.8054 13.7788C19.7693 13.693 19.7166 13.6151 19.6501 13.55C19.5058 13.4262 19.3199 13.3619 19.13 13.37C19.0311 13.3697 18.9332 13.3899 18.8424 13.4292C18.7517 13.4684 18.6699 13.526 18.6024 13.5982C18.5348 13.6705 18.4829 13.7559 18.4498 13.8491C18.4167 13.9423 18.4031 14.0413 18.41 14.14C18.4 14.3165 18.4 14.4935 18.41 14.67C18.38 14.68 18.39 14.83 18.39 14.91Z" fill="#E30613"/>
</svg>
