<svg width="44" height="55" viewBox="0 0 44 55" fill="none" xmlns="http://www.w3.org/2000/svg">
<path d="M42.19 45.2499C42.6579 45.0219 43.0469 44.6592 43.3071 44.2083C43.5673 43.7575 43.6867 43.2392 43.6501 42.72C43.6501 29.7266 43.6501 16.7266 43.6501 3.71998C43.69 3.34733 43.6456 2.97043 43.5202 2.61726C43.3948 2.26408 43.1916 1.94362 42.9256 1.67957C42.6597 1.41553 42.3377 1.2147 41.9836 1.09187C41.6295 0.969032 41.2524 0.927372 40.88 0.969979H2.79007C2.40775 0.92599 2.02043 0.970464 1.65806 1.10004C1.29568 1.22963 0.967915 1.44085 0.70017 1.71729C0.432426 1.99374 0.231859 2.32801 0.113927 2.69434C-0.00400412 3.06068 -0.036131 3.44924 0.0200554 3.82996V49.4299C-0.0225515 49.8023 0.0191087 50.1795 0.141943 50.5336C0.264776 50.8877 0.465665 51.2096 0.729711 51.4755C0.993758 51.7415 1.31422 51.9447 1.66739 52.0701C2.02057 52.1955 2.39741 52.2399 2.77006 52.2H5.91007C5.91007 52.69 5.91007 53.1199 5.91007 53.5499C5.87368 53.7744 5.90347 54.0046 5.99582 54.2124C6.08817 54.4202 6.23904 54.5966 6.43003 54.72H6.95005C7.62005 54.28 8.27005 53.83 8.95005 53.4C9.02305 53.3562 9.10481 53.329 9.18949 53.3204C9.27417 53.3117 9.3597 53.3218 9.44004 53.35C10.13 53.79 10.79 54.26 11.44 54.72H11.9701C12.1639 54.6183 12.3212 54.4586 12.4198 54.2631C12.5184 54.0677 12.5534 53.8463 12.5201 53.63C12.5201 52.38 12.5201 51.12 12.5201 49.86V48.86H40.3501V50.6199H15.07C14.8632 50.6199 14.6648 50.7021 14.5185 50.8484C14.3723 50.9947 14.2901 51.1931 14.2901 51.4C14.2901 51.6068 14.3723 51.8052 14.5185 51.9515C14.6648 52.0978 14.8632 52.1799 15.07 52.1799C15.2299 52.1899 15.3902 52.1899 15.5501 52.1799H41.5501C41.7233 52.1899 41.8969 52.1899 42.07 52.1799C42.46 52.1199 42.77 51.8799 42.74 51.4999C42.6637 51.2002 42.5123 50.9249 42.3001 50.7C42.2401 50.62 42.08 50.6099 41.94 50.5599C41.94 48.8999 41.94 47.2399 41.94 45.5599C41.9588 45.4941 41.9906 45.4328 42.0335 45.3795C42.0765 45.3263 42.1297 45.2822 42.19 45.2499ZM10.9201 52.4399C10.5101 52.1699 10.1501 51.95 9.80009 51.7C9.6341 51.5544 9.42082 51.4741 9.20005 51.4741C8.97928 51.4741 8.76606 51.5544 8.60007 51.7C8.27007 51.95 7.91004 52.1699 7.50004 52.4399V48.83H10.9201V52.4399ZM40.3601 47.26H4.14005C3.93318 47.26 3.73482 47.3421 3.58854 47.4884C3.44226 47.6347 3.36008 47.8331 3.36008 48.04C3.36008 48.2469 3.44226 48.4452 3.58854 48.5915C3.73482 48.7378 3.93318 48.82 4.14005 48.82C4.69005 48.82 5.25003 48.82 5.87003 48.82V50.6C4.68003 50.6 3.49004 50.6 2.32004 50.6C2.21348 50.59 2.10998 50.5589 2.01548 50.5087C1.92097 50.4584 1.83733 50.39 1.76945 50.3072C1.70156 50.2244 1.65076 50.1291 1.61997 50.0266C1.58918 49.924 1.57902 49.8164 1.59006 49.71C1.59006 48.6 1.59006 47.5 1.59006 46.4C1.58556 46.2767 1.60706 46.1538 1.65311 46.0394C1.69917 45.9249 1.76876 45.8214 1.8574 45.7356C1.94604 45.6498 2.05169 45.5836 2.16758 45.5413C2.28346 45.4989 2.40699 45.4814 2.53007 45.4899H40.37L40.3601 47.26ZM40.76 43.9H4.94004V42.34C4.94004 41.71 4.65006 41.34 4.15006 41.34C3.65006 41.34 3.37003 41.7 3.37003 42.34C3.37003 42.98 3.37003 43.34 3.37003 43.84L1.59006 43.96V4.19996C1.59006 2.67996 1.78003 2.49997 3.37003 2.58997V3.23994C3.37003 14.9399 3.37003 26.64 3.37003 38.34C3.34491 38.5459 3.34491 38.7541 3.37003 38.96C3.41432 39.1361 3.51874 39.2913 3.6652 39.3988C3.81166 39.5062 3.99102 39.5591 4.17234 39.5484C4.35366 39.5377 4.52557 39.4641 4.65842 39.3403C4.79128 39.2164 4.87673 39.0501 4.90006 38.8699C4.91015 38.6767 4.91015 38.4832 4.90006 38.29V2.56995H40.75C41.75 2.56995 42.0301 2.83997 42.0301 3.83997V42.61C42.0701 43.64 41.8 43.9 40.76 43.9Z" fill="#E30613"/>
<path d="M36.0201 20.42C36.8443 19.9769 37.5209 19.3025 37.9669 18.4799C38.4128 17.6573 38.6086 16.7224 38.5302 15.79C38.5059 14.8274 38.1884 13.8952 37.6201 13.1179C37.0519 12.3405 36.26 11.7552 35.3502 11.4399C34.4745 11.0675 33.5079 10.9637 32.5731 11.1417C31.6383 11.3198 30.7776 11.7716 30.1002 12.4399C30.018 12.5209 29.9188 12.5827 29.8099 12.6207C29.7009 12.6588 29.5849 12.6722 29.4702 12.66C29.3166 12.6654 29.1663 12.706 29.0311 12.7789C28.8958 12.8517 28.7791 12.9547 28.6901 13.08C28.5801 13.3 28.6902 13.69 28.8402 13.97C28.9002 14.1 29.1201 14.18 29.2601 14.27C30.5382 15.0588 31.6412 16.1011 32.5012 17.3325C33.3611 18.5639 33.9597 19.9584 34.2601 21.4299C34.2706 21.5964 34.2706 21.7634 34.2601 21.9299H31.0201C30.9935 21.5946 30.9501 21.2609 30.8901 20.9299C30.6601 19.7999 30.4201 18.6799 30.1401 17.5599C30.1242 17.4501 30.0834 17.3454 30.0208 17.2537C29.9583 17.162 29.8757 17.0858 29.7792 17.0309C29.6828 16.9759 29.5752 16.9437 29.4644 16.9366C29.3537 16.9295 29.2428 16.9477 29.1401 16.9899C29.0381 17.0183 28.943 17.0673 28.8605 17.1337C28.778 17.2001 28.7099 17.2825 28.6603 17.3761C28.6107 17.4697 28.5806 17.5723 28.572 17.6779C28.5634 17.7834 28.5764 17.8896 28.6102 17.9899C28.6802 18.2199 28.7701 18.4499 28.8201 18.6899C29.0301 19.7599 29.2301 20.82 29.4501 21.92H24.3002V21.3199C24.3002 20.2399 24.3002 19.1499 24.3002 18.0699C24.3002 17.3099 24.0402 16.93 23.5302 16.92C23.0202 16.91 22.7302 17.29 22.7302 18.04V21.91H17.6401C17.7001 21.46 17.7202 21.06 17.8002 20.67C17.9902 19.78 18.2002 18.9 18.4102 18.02C18.4511 17.9179 18.4705 17.8084 18.4672 17.6985C18.464 17.5886 18.438 17.4805 18.3911 17.381C18.3442 17.2815 18.2773 17.1928 18.1945 17.1204C18.1118 17.0479 18.015 16.9933 17.9102 16.96C17.8057 16.9269 17.6955 16.9163 17.5867 16.9287C17.4778 16.941 17.3728 16.9762 17.2785 17.0319C17.1842 17.0875 17.1026 17.1624 17.0391 17.2516C16.9757 17.3409 16.9317 17.4425 16.9102 17.5499C16.8609 17.6803 16.8208 17.814 16.7902 17.95C16.5102 19.26 16.2301 20.57 15.9501 21.95H12.6901C12.6901 21.79 12.6901 21.68 12.6901 21.58C13.1302 19.28 14.2927 17.1805 16.0086 15.587C17.7244 13.9934 19.904 12.9891 22.2302 12.72C23.4291 12.6888 24.6287 12.7423 25.8201 12.8799C25.9259 12.9067 26.0359 12.9121 26.1438 12.8958C26.2517 12.8795 26.3552 12.8418 26.4483 12.785C26.5414 12.7282 26.6223 12.6534 26.6861 12.565C26.75 12.4766 26.7955 12.3762 26.8201 12.27C26.8449 12.1679 26.8483 12.0618 26.83 11.9584C26.8117 11.855 26.7722 11.7565 26.7139 11.6691C26.6557 11.5817 26.58 11.5073 26.4915 11.4507C26.4031 11.394 26.3039 11.3563 26.2001 11.34L25.8402 11.26C23.0485 10.7362 20.1616 11.1845 17.6602 12.53C17.6018 12.5765 17.5346 12.6106 17.4627 12.6303C17.3907 12.65 17.3154 12.6549 17.2415 12.6446C17.1676 12.6343 17.0966 12.6091 17.0327 12.5704C16.9689 12.5318 16.9136 12.4807 16.8701 12.42C16.3828 11.9058 15.7917 11.501 15.1361 11.2325C14.4805 10.964 13.7753 10.8379 13.0673 10.8626C12.3593 10.8872 11.6646 11.062 11.0292 11.3754C10.3939 11.6888 9.83241 12.1337 9.38196 12.6805C8.93152 13.2273 8.60246 13.8636 8.41651 14.5472C8.23056 15.2308 8.19201 15.9461 8.30341 16.6458C8.41481 17.3454 8.67356 18.0134 9.06263 18.6054C9.45169 19.1975 9.96213 19.7001 10.5601 20.08C10.8227 20.2097 11.0299 20.4297 11.1437 20.6996C11.2576 20.9695 11.2705 21.2713 11.1801 21.5499C10.5201 26.0799 9.94014 30.62 9.32014 35.16C9.29394 35.2699 9.29076 35.3841 9.3108 35.4954C9.33084 35.6066 9.37367 35.7125 9.43659 35.8064C9.49951 35.9003 9.58114 35.9802 9.6764 36.041C9.77166 36.1019 9.87846 36.1424 9.99012 36.16C10.0995 36.1725 10.2103 36.1621 10.3154 36.1293C10.4205 36.0966 10.5177 36.0422 10.6005 35.9697C10.6834 35.8972 10.7501 35.8081 10.7966 35.7083C10.843 35.6085 10.8681 35.5 10.8701 35.39C11.0501 34.16 11.2001 32.93 11.3701 31.7C11.5401 30.47 11.6701 29.49 11.8301 28.29C14.2401 33.29 18.0701 36.1399 23.5701 36.1299C29.0701 36.1199 32.8901 33.26 35.2601 28.29C35.5801 30.68 35.8902 32.99 36.2101 35.29C36.2901 35.91 36.6302 36.22 37.1002 36.16C37.5702 36.1 37.8301 35.67 37.7501 35.04C37.5201 33.35 37.3101 31.65 37.0701 29.95C36.6568 26.9433 36.2335 23.9433 35.8002 20.95C35.7202 20.66 35.8201 20.56 36.0201 20.42ZM10.0201 15.95C10.052 15.2658 10.2868 14.6066 10.6946 14.0563C11.1025 13.506 11.6648 13.0895 12.3101 12.86C12.9176 12.6382 13.5772 12.6015 14.2056 12.7546C14.8339 12.9077 15.4027 13.2436 15.8402 13.72C14.0647 15.1132 12.6856 16.9475 11.8402 19.04C11.2696 18.7572 10.7937 18.3144 10.4705 17.7657C10.1473 17.217 9.99081 16.5861 10.0201 15.95ZM29.2601 32.95C27.4904 34.1153 25.408 34.7146 23.2896 34.6682C21.1712 34.6217 19.1171 33.9317 17.4002 32.6899C15.8856 31.7082 14.6446 30.3587 13.7929 28.7673C12.9413 27.176 12.5068 25.3947 12.5302 23.59H34.5302C34.5557 25.4853 34.0788 27.3536 33.1478 29.0047C32.2169 30.6558 30.8651 32.0309 29.2302 32.9899L29.2601 32.95ZM35.2601 18.9999C34.4126 16.9059 33.0339 15.0689 31.2601 13.67C31.7081 13.1903 32.289 12.8551 32.9285 12.7072C33.568 12.5594 34.2371 12.6056 34.8502 12.84C35.4912 13.0835 36.0453 13.5119 36.4424 14.071C36.8394 14.63 37.0614 15.2945 37.0801 15.98C37.0961 16.6184 36.9259 17.2477 36.5903 17.7911C36.2547 18.3344 35.7682 18.7684 35.1901 19.04L35.2601 18.9999Z" fill="#E30613"/>
<path d="M20.58 28.76C20.89 28.68 21.49 28.57 22.06 28.38C22.1645 28.3557 22.2626 28.3092 22.3476 28.2438C22.4326 28.1784 22.5026 28.0955 22.5528 28.0007C22.6031 27.9059 22.6324 27.8014 22.6388 27.6944C22.6452 27.5873 22.6286 27.4801 22.5901 27.38C22.5563 27.2747 22.5006 27.1779 22.4267 27.0958C22.3527 27.0138 22.2621 26.9483 22.161 26.9039C22.0598 26.8595 21.9504 26.837 21.8399 26.838C21.7294 26.8391 21.6204 26.8636 21.5201 26.91C20.8345 27.1962 20.0749 27.2534 19.3542 27.0733C18.6335 26.8931 17.9903 26.4851 17.5201 25.91C17.4544 25.8174 17.3696 25.74 17.2715 25.6831C17.1733 25.6262 17.064 25.5911 16.951 25.5803C16.8381 25.5694 16.7241 25.5831 16.6169 25.6202C16.5096 25.6573 16.4117 25.7171 16.3296 25.7956C16.2476 25.874 16.1834 25.9692 16.1415 26.0746C16.0995 26.18 16.0807 26.2933 16.0865 26.4066C16.0922 26.52 16.1223 26.6307 16.1747 26.7314C16.227 26.8321 16.3005 26.9202 16.39 26.9899C16.9063 27.5861 17.5526 28.0557 18.2791 28.3626C19.0055 28.6695 19.7927 28.8054 20.58 28.76Z" fill="#E30613"/>
<path d="M25.0198 28.38C25.6298 28.57 26.2698 28.6901 26.8898 28.8401C27.6055 28.8012 28.3061 28.6193 28.9502 28.305C29.5944 27.9906 30.1689 27.5503 30.6398 27.01C30.7214 26.936 30.7866 26.8457 30.8312 26.745C30.8758 26.6442 30.8989 26.5352 30.8989 26.425C30.8989 26.3148 30.8758 26.2059 30.8312 26.1051C30.7866 26.0044 30.7214 25.9141 30.6398 25.8401C30.5619 25.7684 30.4699 25.7137 30.3696 25.6797C30.2694 25.6457 30.1632 25.633 30.0577 25.6424C29.9523 25.6518 29.8499 25.6831 29.7573 25.7344C29.6647 25.7857 29.5838 25.8557 29.5198 25.94C29.0486 26.5138 28.4054 26.9208 27.685 27.1009C26.9647 27.281 26.2056 27.2246 25.5198 26.94C25.4241 26.9034 25.3219 26.8863 25.2195 26.8897C25.117 26.8931 25.0162 26.9169 24.9231 26.9597C24.8299 27.0026 24.7463 27.0636 24.6771 27.1392C24.6078 27.2148 24.5543 27.3035 24.5198 27.4001C24.4827 27.4969 24.4663 27.6005 24.4717 27.7041C24.4772 27.8077 24.5044 27.909 24.5516 28.0014C24.5987 28.0938 24.6647 28.1753 24.7454 28.2405C24.8261 28.3057 24.9196 28.3533 25.0198 28.38Z" fill="#E30613"/>
</svg>
