<svg width="51" height="52" viewBox="0 0 51 52" fill="none" xmlns="http://www.w3.org/2000/svg">
<path d="M0 46.31V15.37C0.154372 14.7586 0.539473 14.2307 1.07452 13.897C1.60958 13.5633 2.25302 13.4497 2.87 13.58V8.15996C2.87 7.15996 3.05 6.97997 4.06 6.97997H15.32C15.6274 6.97875 15.9219 6.85665 16.14 6.64C16.79 6.09 17.5 5.64 18.14 5.07C18.3413 4.91908 18.5056 4.72411 18.6201 4.49999C18.9875 3.54197 19.6178 2.70711 20.4387 2.09148C21.2595 1.47585 22.2374 1.10447 23.2599 1.02001C24.2352 0.900457 25.2246 1.05074 26.1203 1.45452C27.016 1.8583 27.7838 2.50007 28.34 3.30999L28.64 3.71996C29.067 3.00528 29.6474 2.39426 30.3391 1.93084C31.0307 1.46741 31.8165 1.16312 32.64 1.03997C32.743 1.00675 32.852 0.995373 32.9597 1.00652C33.0674 1.01767 33.1715 1.05111 33.2656 1.10472C33.3596 1.15834 33.4415 1.23093 33.5059 1.31792C33.5704 1.40491 33.616 1.50438 33.64 1.60997C33.73 2.03997 33.45 2.37999 32.92 2.49999L32.68 2.54998C31.9028 2.68651 31.1833 3.04991 30.6121 3.59441C30.0409 4.13891 29.6436 4.84016 29.47 5.60997C29.39 5.92997 29.39 6.25997 29.34 6.60997C29.3362 6.70544 29.3134 6.79916 29.273 6.88573C29.2326 6.9723 29.1753 7.04996 29.1046 7.11419C29.0338 7.17841 28.951 7.22792 28.8609 7.25982C28.7708 7.29171 28.6754 7.30536 28.58 7.29998C28.3951 7.30005 28.2175 7.22803 28.0849 7.09917C27.9523 6.97031 27.8753 6.79479 27.8701 6.60997C27.8701 6.44997 27.8701 6.27998 27.8701 6.11998C27.7619 5.14136 27.3034 4.23488 26.5793 3.56774C25.8552 2.9006 24.9142 2.5178 23.93 2.48998C22.9361 2.45395 21.9645 2.78946 21.2047 3.43102C20.4448 4.07258 19.9511 4.9742 19.82 5.96001C19.715 7.04414 19.715 8.13583 19.82 9.21996C19.8715 9.9698 20.2141 10.6699 20.7746 11.1706C21.3351 11.6713 22.0691 11.9331 22.82 11.9H34.6201C35.4157 11.9 36.1787 11.5839 36.7413 11.0213C37.3039 10.4587 37.6201 9.69566 37.6201 8.90001C37.6201 8.23001 37.6201 7.55001 37.6201 6.90001C37.6589 6.20377 37.5216 5.50895 37.221 4.87975C36.9204 4.25055 36.466 3.70721 35.9 3.29998C35.8057 3.24781 35.7238 3.17594 35.6599 3.08928C35.5959 3.00263 35.5514 2.90326 35.5292 2.79784C35.5071 2.69242 35.508 2.58344 35.5318 2.47838C35.5556 2.37332 35.6016 2.27466 35.6669 2.18901C35.7323 2.10337 35.8153 2.0328 35.9103 1.98211C36.0054 1.93141 36.1102 1.90174 36.2177 1.89519C36.3252 1.88864 36.4329 1.90536 36.5334 1.94414C36.6339 1.98293 36.7248 2.0429 36.8 2.11998C37.6575 2.74426 38.3227 3.59656 38.72 4.58001C38.8382 4.80458 39.0057 4.99946 39.21 5.15001C39.89 5.69001 40.58 6.22998 41.29 6.73998C41.4995 6.90634 41.7534 7.00719 42.02 7.02996C43.67 7.02996 45.32 7.02996 47.02 7.02996C47.72 7.02996 48.02 7.28996 48.02 8.02996V13.63H48.2599C50.1699 13.71 50.9 14.46 50.9 16.36V45.51C50.9561 45.866 50.9274 46.2301 50.8162 46.5729C50.7051 46.9157 50.5146 47.2274 50.2603 47.4827C50.006 47.738 49.695 47.9297 49.3526 48.0422C49.0102 48.1546 48.6462 48.1847 48.29 48.13H33.81C33.6161 48.1035 33.4189 48.1169 33.2303 48.1692C33.0417 48.2215 32.8657 48.3117 32.7132 48.4343C32.5606 48.5569 32.4346 48.7093 32.343 48.8823C32.2513 49.0552 32.1959 49.2449 32.18 49.44C32.1828 49.9796 32.0068 50.5048 31.6793 50.9336C31.3518 51.3625 30.8913 51.6707 30.3701 51.81H20.65L20.2 51.62C19.838 51.4743 19.5227 51.2323 19.2883 50.9203C19.0538 50.6084 18.9093 50.2382 18.8701 49.85C18.7201 48.5 18.32 48.13 16.97 48.13C12.3 48.13 7.63003 48.13 2.97003 48.13C2.33731 48.2502 1.68249 48.1303 1.13336 47.7938C0.584231 47.4573 0.180153 46.9283 0 46.31ZM42.68 8.49999C43.82 11.13 44.02 12.1 43.85 14.15C43.6298 16.3053 42.6568 18.3139 41.1022 19.8227C39.5476 21.3316 37.5109 22.2442 35.35 22.4C32.51 22.51 29.67 22.4 26.82 22.45H26.18V38.59C26.7597 38.0508 27.4442 37.6368 28.1909 37.3736C28.9375 37.1104 29.7303 37.0036 30.52 37.06C35.61 37.06 40.7 37.06 45.79 37.06H46.39V8.49999H42.68ZM4.38 37.15C5.23 36.44 5.97999 35.8 6.73999 35.15C6.79219 35.1221 6.83808 35.0836 6.87476 35.0372C6.91143 34.9907 6.9381 34.9372 6.95312 34.8799C6.96815 34.8227 6.97118 34.7629 6.96204 34.7044C6.95289 34.6459 6.9318 34.5899 6.90002 34.54C6.23739 32.9964 6.05274 31.2896 6.37 29.64C6.6043 28.3682 7.12108 27.1652 7.88226 26.1198C8.64344 25.0744 9.62962 24.2132 10.768 23.5997C11.9064 22.9861 13.1679 22.636 14.4597 22.575C15.7514 22.514 17.0404 22.7439 18.2315 23.2474C19.4226 23.751 20.4855 24.5155 21.3417 25.4846C22.198 26.4537 22.8257 27.6026 23.1788 28.8467C23.5318 30.0907 23.6011 31.3982 23.3815 32.6726C23.1619 33.947 22.659 35.1559 21.91 36.21C21.73 36.47 21.52 36.73 21.29 37.03C22.5368 37.1535 23.7061 37.6923 24.61 38.56V22.42C20.81 22.75 17.5 21.82 15.21 18.61C12.92 15.4 12.9 12 14.65 8.51H4.38V37.15ZM1.58002 45.51C1.40002 46.25 1.69998 46.59 2.47998 46.59H17.11C17.5075 46.564 17.906 46.6198 18.2812 46.7536C18.6563 46.8874 19.0001 47.0966 19.2914 47.3682C19.5828 47.6399 19.8153 47.9682 19.975 48.3331C20.1347 48.698 20.2181 49.0917 20.22 49.49C20.22 49.99 20.5101 50.27 21.0001 50.27H29.78C29.8757 50.2768 29.9718 50.2641 30.0624 50.2327C30.1531 50.2013 30.2364 50.1519 30.3074 50.0875C30.3785 50.023 30.4358 49.9447 30.4758 49.8575C30.5157 49.7703 30.5375 49.6759 30.54 49.58C30.85 47.46 31.8501 46.58 33.9901 46.58H48.32C48.94 46.58 49.32 46.3 49.32 45.83C49.32 45.36 48.98 45.09 48.39 45.09C43.45 45.09 38.51 45.09 33.57 45.09C32.639 45.0708 31.7266 45.3523 30.9682 45.8927C30.2098 46.4332 29.6459 47.2037 29.36 48.09C29.2971 48.3207 29.1534 48.5212 28.9553 48.6551C28.7571 48.7891 28.5175 48.8476 28.28 48.82C26.38 48.82 24.48 48.82 22.58 48.82C21.85 48.82 21.73 48.73 21.46 48.02C21.1502 47.1862 20.596 46.4652 19.8698 45.9513C19.1437 45.4375 18.2794 45.1547 17.39 45.14C16.75 45.14 16.1 45.14 15.46 45.14C15.3567 45.1486 15.2526 45.1351 15.1548 45.1004C15.0571 45.0657 14.9679 45.0105 14.8931 44.9386C14.8184 44.8667 14.7599 44.7797 14.7214 44.6833C14.6829 44.587 14.6654 44.4836 14.67 44.38C14.6693 44.2796 14.6901 44.1802 14.7307 44.0884C14.7712 43.9966 14.8308 43.9145 14.9055 43.8474C14.9801 43.7803 15.068 43.7298 15.1636 43.6992C15.2592 43.6686 15.3603 43.6587 15.46 43.67C16.04 43.67 16.61 43.67 17.19 43.67C18.3318 43.6461 19.4561 43.9535 20.4268 44.5552C21.3976 45.1568 22.1732 46.0268 22.66 47.06C22.7068 47.1342 22.7682 47.1981 22.8404 47.2479C22.9126 47.2978 22.9941 47.3325 23.08 47.35C24.64 47.35 26.1901 47.35 27.7401 47.35C27.822 47.3431 27.9013 47.3181 27.9722 47.2765C28.0432 47.235 28.1039 47.1781 28.15 47.11C28.6562 46.033 29.4714 45.1308 30.4918 44.5183C31.5121 43.9058 32.6915 43.6105 33.8801 43.67H48.21C48.57 43.67 48.93 43.67 49.32 43.67V16.21C49.32 15.21 49.05 14.96 47.93 15.12V40.63C47.93 41.63 47.75 41.84 46.72 41.84H30.0099C29.142 41.8108 28.2913 42.0871 27.606 42.6207C26.9208 43.1542 26.4444 43.9113 26.2599 44.76C26.2079 45.0512 26.1712 45.3449 26.15 45.64C26.15 45.8336 26.0731 46.0193 25.9362 46.1562C25.7993 46.2931 25.6136 46.37 25.42 46.37C25.2264 46.37 25.0408 46.2931 24.9039 46.1562C24.767 46.0193 24.69 45.8336 24.69 45.64C24.69 45.51 24.69 45.38 24.69 45.25C24.6202 44.3336 24.2099 43.4765 23.54 42.8473C22.8701 42.2181 21.989 41.8623 21.07 41.85C17.13 41.85 13.2 41.85 9.26001 41.85C9.14001 41.85 8.97002 41.85 8.90002 41.93C8.43002 42.45 7.99002 42.99 7.46002 43.62H11.95C12.0449 43.6146 12.1399 43.6283 12.2294 43.6603C12.3189 43.6923 12.4011 43.742 12.471 43.8063C12.541 43.8707 12.5972 43.9484 12.6365 44.0349C12.6759 44.1214 12.6975 44.215 12.7 44.31C12.7054 44.4096 12.6906 44.5094 12.6564 44.6031C12.6223 44.6969 12.5696 44.7828 12.5014 44.8557C12.4332 44.9286 12.3509 44.9869 12.2596 45.0271C12.1683 45.0674 12.0698 45.0888 11.97 45.09C11.8402 45.0999 11.7098 45.0999 11.58 45.09C10.02 45.09 8.47003 45.09 6.91003 45.09C6.48857 45.0709 6.0729 45.1942 5.72998 45.44C5.33318 45.7043 4.89324 45.8972 4.42999 46.01C3.94652 46.1321 3.44274 46.1506 2.9516 46.0644C2.46046 45.9783 1.99306 45.7894 1.58002 45.51ZM18.2599 6.86998C18.1912 6.89892 18.1244 6.9323 18.06 6.96996C17.9603 7.031 17.8665 7.10134 17.78 7.17998C16.5777 8.15863 15.6957 9.47452 15.2473 10.9585C14.7988 12.4424 14.8046 14.0266 15.2637 15.5073C15.7229 16.988 16.6145 18.2975 17.8238 19.2674C19.0331 20.2373 20.5049 20.8233 22.05 20.95C23.27 21.02 24.49 20.95 25.72 20.95C28.84 20.95 31.97 21.01 35.09 20.95C36.6689 20.8836 38.1887 20.3311 39.4417 19.3681C40.6947 18.4051 41.6196 17.0786 42.09 15.57C42.5707 14.0632 42.5813 12.4458 42.1204 10.9328C41.6596 9.41982 40.749 8.08295 39.5099 7.09996L39.15 6.86998C39.1472 6.91661 39.1472 6.96337 39.15 7.01V12.87C39.1892 13.5009 39.0942 14.1331 38.8712 14.7246C38.6481 15.3161 38.3021 15.8536 37.856 16.3016C37.4099 16.7495 36.874 17.0977 36.2834 17.3233C35.6928 17.5488 35.0611 17.6465 34.43 17.61C30.63 17.61 26.83 17.61 23.03 17.61C22.4028 17.6102 21.7803 17.5019 21.19 17.29C20.3295 16.9706 19.5918 16.3879 19.0818 15.6248C18.5719 14.8617 18.3158 13.9571 18.35 13.04C18.25 11 18.2599 8.94998 18.2599 6.86998ZM14.89 38.42C16.3045 38.416 17.6861 37.9926 18.8599 37.2032C20.0337 36.4138 20.9471 35.2939 21.4843 33.9853C22.0215 32.6768 22.1584 31.2382 21.8779 29.8518C21.5973 28.4653 20.9118 27.1933 19.908 26.1965C18.9043 25.1998 17.6275 24.5232 16.2391 24.2523C14.8507 23.9814 13.4131 24.1285 12.1083 24.6749C10.8035 25.2212 9.69015 26.1423 8.909 27.3216C8.12784 28.5009 7.7141 29.8854 7.72003 31.3C7.73325 33.1902 8.49541 34.9979 9.83948 36.327C11.1835 37.6561 12.9997 38.398 14.89 38.39V38.42ZM19.8 12.31C19.53 14.73 20.8 16.17 23.11 16.17H34.22C34.5179 16.1662 34.8152 16.1428 35.11 16.1C35.5221 16.0285 35.9146 15.8716 36.2625 15.6394C36.6104 15.4072 36.9058 15.1049 37.1299 14.7518C37.3541 14.3986 37.5019 14.0025 37.5639 13.5889C37.6259 13.1753 37.6008 12.7533 37.4901 12.35C36.4302 13.1647 35.1007 13.5471 33.77 13.42C30.35 13.42 26.9299 13.42 23.5099 13.42C22.1732 13.5268 20.8461 13.119 19.8 12.28V12.31ZM46.39 38.59H29.52C28.6831 38.6624 27.897 39.0214 27.294 39.6061C26.691 40.1909 26.3081 40.9658 26.21 41.8C26.21 41.8 26.31 41.8 26.34 41.8C27.4141 40.8476 28.8159 40.3492 30.2501 40.41C35.4401 40.41 40.63 40.41 45.82 40.41H46.39V38.59ZM7.59003 36.43L2.35004 40.81C2.12278 40.9995 1.93745 41.2343 1.80597 41.4994C1.67449 41.7645 1.59972 42.0541 1.58636 42.3497C1.57301 42.6453 1.62135 42.9404 1.72839 43.2163C1.83543 43.4922 1.99883 43.7427 2.20807 43.952C2.41731 44.1612 2.66779 44.3245 2.94366 44.4316C3.21954 44.5386 3.51469 44.587 3.8103 44.5737C4.10591 44.5603 4.39549 44.4855 4.66058 44.354C4.92568 44.2225 5.16052 44.0372 5.35004 43.81L8.48999 40.05L9.72003 38.57L7.59003 36.43ZM1.47998 39.59C1.84998 39.28 2.12998 39.02 2.47998 38.81C2.63578 38.709 2.76043 38.5666 2.8399 38.3989C2.91938 38.2311 2.95057 38.0445 2.92999 37.86C2.92999 30.4666 2.92999 23.08 2.92999 15.7V15.13C1.74999 15.02 1.53998 15.21 1.53998 16.31V39.59H1.47998ZM24.54 41.84C24.54 41.77 24.54 41.75 24.54 41.72C24.55 41.6874 24.55 41.6526 24.54 41.62C24.4183 40.9226 24.0949 40.2762 23.6097 39.7608C23.1245 39.2454 22.4988 38.8835 21.81 38.72C21.1803 38.6044 20.5391 38.5642 19.9 38.6C19.6075 38.6044 19.3201 38.6763 19.06 38.81C17.8566 39.475 16.5136 39.8477 15.1396 39.8981C13.7655 39.9485 12.3989 39.6751 11.15 39.1L10.08 40.38H20.57C20.9043 40.3769 21.2385 40.397 21.57 40.44C22.682 40.5639 23.7239 41.0445 24.54 41.81V41.84Z" fill="#E30613"/>
<path d="M36.82 26.29H29.82C29.6568 26.3 29.4932 26.3 29.33 26.29C29.1532 26.2822 28.9863 26.2057 28.8649 26.0769C28.7436 25.948 28.6772 25.777 28.68 25.6C28.6623 25.4234 28.7123 25.2466 28.82 25.1055C28.9277 24.9644 29.0849 24.8695 29.26 24.84C29.4227 24.8199 29.5874 24.8199 29.7501 24.84H43.97C44.1197 24.8248 44.2704 24.8248 44.42 24.84C44.6039 24.8626 44.772 24.9553 44.8894 25.0987C45.0067 25.2421 45.0643 25.4252 45.05 25.61C45.05 25.7014 45.0318 25.792 44.9965 25.8764C44.9612 25.9608 44.9096 26.0372 44.8444 26.1014C44.7793 26.1656 44.702 26.2163 44.6171 26.2504C44.5323 26.2844 44.4415 26.3013 44.35 26.3H36.8601L36.82 26.29Z" fill="#E30613"/>
<path d="M36.84 30.14H29.7C29.5372 30.1601 29.3727 30.1601 29.21 30.14C29.0368 30.1083 28.8819 30.0124 28.7762 29.8715C28.6706 29.7307 28.6219 29.5552 28.6399 29.38C28.6396 29.2037 28.7069 29.034 28.8278 28.9057C28.9486 28.7774 29.1139 28.7002 29.2899 28.69C29.4398 28.68 29.5902 28.68 29.74 28.69H43.9099C44.0431 28.6799 44.1768 28.6799 44.3099 28.69C44.4948 28.6926 44.6713 28.7672 44.802 28.8979C44.9327 29.0286 45.0073 29.2052 45.0099 29.39C45.0209 29.5821 44.9557 29.7707 44.8284 29.9149C44.701 30.0591 44.5219 30.1471 44.33 30.16C44.1801 30.17 44.0298 30.17 43.88 30.16L36.84 30.14Z" fill="#E30613"/>
<path d="M33.6599 32.49C35.0699 32.49 36.47 32.49 37.87 32.49C38.0166 32.5129 38.1568 32.5656 38.2824 32.6447C38.4079 32.7238 38.516 32.8277 38.6 32.95C38.6375 33.0688 38.647 33.1947 38.6279 33.3179C38.6089 33.441 38.5617 33.5581 38.49 33.66C38.3188 33.8309 38.0914 33.9339 37.85 33.95H29.44C29.336 33.9635 29.2303 33.9538 29.1305 33.9216C29.0307 33.8895 28.9394 33.8356 28.8629 33.7639C28.7864 33.6922 28.7268 33.6045 28.6882 33.507C28.6497 33.4095 28.6331 33.3046 28.6399 33.2C28.6399 32.75 28.93 32.48 29.46 32.48L33.6599 32.49Z" fill="#E30613"/>
<path d="M14.81 37.01C13.6664 36.9999 12.5515 36.6501 11.607 36.0051C10.6626 35.3601 9.93108 34.449 9.50547 33.3874C9.07986 32.3259 8.97934 31.1618 9.21665 30.043C9.45396 28.9242 10.0184 27.9011 10.8384 27.1038C11.6583 26.3064 12.6966 25.7707 13.8216 25.5646C14.9466 25.3586 16.1074 25.4915 17.1567 25.9465C18.206 26.4016 19.0964 27.1581 19.7148 28.1202C20.3332 29.0823 20.6519 30.2065 20.6301 31.35C20.6038 32.8707 19.977 34.3193 18.8867 35.3796C17.7964 36.44 16.3309 37.0261 14.81 37.01ZM14.81 35.52C15.6569 35.524 16.486 35.2765 17.1922 34.8091C17.8985 34.3416 18.4503 33.6752 18.7776 32.8941C19.1049 32.113 19.193 31.2523 19.031 30.421C18.8689 29.5897 18.4638 28.8252 17.867 28.2242C17.2703 27.6233 16.5087 27.2129 15.6786 27.045C14.8484 26.8771 13.9871 26.9592 13.2037 27.2811C12.4203 27.6029 11.75 28.1499 11.2776 28.8528C10.8052 29.5558 10.552 30.383 10.55 31.23C10.5474 31.7949 10.6569 32.3548 10.8722 32.8771C11.0874 33.3995 11.4042 33.8739 11.8042 34.2729C12.2041 34.672 12.6793 34.9877 13.2021 35.2017C13.725 35.4158 14.2851 35.524 14.8501 35.52H14.81Z" fill="#E30613"/>
</svg>
