<svg width="65" height="61" viewBox="0 0 65 61" fill="none" xmlns="http://www.w3.org/2000/svg">
<g clip-path="url(#clip0_129_779)">
<path d="M62.7502 21.26L52.2302 20.26C52.2302 16.65 49.6602 14.26 45.7002 14.26H40.2802L33.9302 1.06999C33.7781 0.747785 33.5375 0.475451 33.2365 0.284725C32.9355 0.0939997 32.5865 -0.00726318 32.2302 -0.00726318C31.8739 -0.00726318 31.5249 0.0939997 31.2239 0.284725C30.9229 0.475451 30.6824 0.747785 30.5302 1.06999L24.1802 14.33H11.4502V20.33H11.6802L1.68022 21.26C1.31719 21.2951 0.972068 21.4345 0.686495 21.6614C0.400922 21.8883 0.187095 22.1929 0.0708069 22.5386C-0.0454808 22.8843 -0.0592609 23.2563 0.0311287 23.6096C0.121518 23.963 0.312216 24.2826 0.580219 24.53L11.4402 34.53V40.2H11.2102V41.74C11.178 42.6458 11.3398 43.548 11.6848 44.3862C12.0297 45.2244 12.5498 45.9792 13.2102 46.6C13.4032 46.7635 13.607 46.9138 13.8202 47.05L11.5902 58.49C11.5191 58.8442 11.5516 59.2115 11.6838 59.5478C11.8159 59.884 12.0422 60.1751 12.3355 60.3861C12.6288 60.5971 12.9767 60.7191 13.3376 60.7376C13.6984 60.756 14.0569 60.67 14.3702 60.49L31.2902 50.79C31.577 50.6279 31.9008 50.5427 32.2302 50.5427C32.5596 50.5427 32.8835 50.6279 33.1702 50.79L50.0902 60.49C50.4035 60.67 50.762 60.756 51.1229 60.7376C51.4837 60.7191 51.8316 60.5971 52.1249 60.3861C52.4182 60.1751 52.6445 59.884 52.7767 59.5478C52.9089 59.2115 52.9413 58.8442 52.8702 58.49L50.3202 45.85L50.4202 45.74C51.6402 44.15 52.2302 41.9 52.2302 38.88C52.2409 37.7453 52.1337 36.6125 51.9102 35.5L63.8502 24.5C64.1088 24.2511 64.2912 23.9337 64.3761 23.585C64.4609 23.2362 64.4447 22.8705 64.3293 22.5306C64.2139 22.1907 64.0041 21.8908 63.7245 21.6657C63.4448 21.4407 63.1069 21.3 62.7502 21.26ZM37.1102 41.26C36.9643 42.5268 36.5036 43.7369 35.7702 44.78C35.2182 45.4609 34.5099 45.9984 33.7055 46.3466C32.9011 46.6948 32.0245 46.8435 31.1502 46.78C30.276 46.8435 29.3993 46.6948 28.5949 46.3466C27.7905 45.9984 27.0822 45.4609 26.5302 44.78C26.0235 44.0912 25.6566 43.3098 25.4502 42.48C25.1427 41.305 24.9914 40.0946 25.0002 38.88C25.0002 38.63 25.0002 38.39 25.0002 38.15C24.9514 36.3031 25.4678 34.4854 26.4802 32.94C27.0445 32.264 27.7639 31.7346 28.5771 31.3968C29.3903 31.0589 30.2731 30.9228 31.1502 31C32.0201 30.9322 32.8935 31.0739 33.6973 31.4132C34.5012 31.7525 35.212 32.2795 35.7702 32.95C36.5052 33.996 36.9659 35.2097 37.1102 36.48C37.3369 38.0787 37.3369 39.7013 37.1102 41.3V41.26ZM31.6002 15.64C32.5075 15.6166 33.41 15.7781 34.2528 16.1146C35.0957 16.4511 35.8613 16.9555 36.503 17.5972C37.1447 18.239 37.6492 19.0045 37.9856 19.8474C38.3221 20.6903 38.4836 21.5928 38.4602 22.5C38.4955 23.4236 38.344 24.3447 38.0149 25.2084C37.6858 26.0721 37.1858 26.8604 36.5448 27.5263C35.9039 28.1922 35.1352 28.7219 34.2847 29.0837C33.4342 29.4456 32.5195 29.6321 31.5952 29.6321C30.671 29.6321 29.7562 29.4456 28.9058 29.0837C28.0553 28.7219 27.2866 28.1922 26.6456 27.5263C26.0047 26.8604 25.5047 26.0721 25.1755 25.2084C24.8464 24.3447 24.695 23.4236 24.7302 22.5C24.7262 21.7646 24.8341 21.0329 25.0502 20.33C25.1302 20.09 25.2102 19.87 25.3102 19.64C25.849 18.4285 26.7331 17.4028 27.8519 16.6913C28.9708 15.9798 30.2746 15.6141 31.6002 15.64ZM41.0002 15.85H45.7002C48.9502 15.85 50.6202 17.65 50.7002 20.14C50.7002 20.2 50.7002 20.25 50.7002 20.32C50.7002 22.65 49.0802 24.72 45.7002 24.72H43.8602V29.24H40.1402V15.85H41.0002ZM13.0002 18.85V15.85H23.7902V18.85H20.2202V29.24H16.5002V18.81L13.0002 18.85ZM12.8102 41.73H17.0002C17.0502 42.87 17.5102 43.45 18.4002 43.45C19.2902 43.45 19.9002 42.68 19.9002 41.13C19.9002 39.58 19.4202 38.79 18.4602 38.79C18.1179 38.7527 17.7745 38.8497 17.5022 39.0604C17.2299 39.2711 17.05 39.5793 17.0002 39.92H13.0002V31.36H23.3002V34.57H16.9202V37C17.2587 36.614 17.6827 36.3126 18.1585 36.1199C18.6343 35.9272 19.1486 35.8484 19.6602 35.89C20.2631 35.8677 20.8632 35.982 21.4156 36.2245C21.9681 36.4669 22.4585 36.8312 22.8502 37.29C23.1291 37.6345 23.3549 38.0187 23.5202 38.43C23.8665 39.3042 24.0298 40.2402 24.0002 41.18C23.9968 41.6467 23.9499 42.112 23.8602 42.57C23.6927 43.6206 23.1788 44.585 22.4002 45.31C21.2794 46.3046 19.8176 46.8277 18.3202 46.77C16.8675 46.8421 15.4405 46.3676 14.3202 45.44C14.3202 45.44 14.3202 45.44 14.2502 45.37C13.7674 44.8891 13.3879 44.3147 13.1351 43.6818C12.8823 43.049 12.7615 42.3712 12.7802 41.69L12.8102 41.73ZM50.7502 38.92C50.8119 40.5646 50.5257 42.2037 49.9102 43.73C49.7311 44.128 49.5062 44.5039 49.2402 44.85C48.6882 45.5309 47.9799 46.0684 47.1755 46.4166C46.3711 46.7648 45.4945 46.9135 44.6202 46.85C43.746 46.9135 42.8693 46.7648 42.0649 46.4166C41.2605 46.0684 40.5522 45.5309 40.0002 44.85C39.2661 43.8081 38.8085 42.597 38.6702 41.33C38.4436 39.7313 38.4436 38.1087 38.6702 36.51C38.8002 35.2257 39.2582 33.9963 40.0002 32.94C40.5565 32.2756 41.2629 31.7532 42.061 31.4158C42.8591 31.0785 43.7261 30.9359 44.5902 31C45.4601 30.9322 46.3335 31.0739 47.1373 31.4132C47.9412 31.7525 48.652 32.2795 49.2102 32.95C49.9898 34.0684 50.4622 35.3718 50.5802 36.73C50.6748 37.4427 50.7216 38.161 50.7202 38.88L50.7502 38.92Z" fill="#E30613"/>
<path d="M31.1498 34.26C30.8265 34.2422 30.5062 34.3301 30.2374 34.5106C29.9685 34.691 29.7658 34.9541 29.6598 35.26C29.324 36.4323 29.1854 37.6523 29.2498 38.87C29.1852 40.0845 29.3238 41.3012 29.6598 42.47C29.7658 42.776 29.9685 43.039 30.2374 43.2195C30.5062 43.3999 30.8265 43.4879 31.1498 43.47C31.4704 43.4867 31.7877 43.398 32.0531 43.2174C32.3185 43.0369 32.5176 42.7744 32.6198 42.47C32.9609 41.3022 33.0996 40.0846 33.0298 38.87C33.1001 37.6521 32.9614 36.4311 32.6198 35.26C32.5176 34.9557 32.3185 34.6932 32.0531 34.5126C31.7877 34.332 31.4704 34.2433 31.1498 34.26Z" fill="#E30613"/>
<path d="M44.5902 34.26C44.2669 34.2422 43.9466 34.3301 43.6778 34.5106C43.409 34.691 43.2062 34.9541 43.1002 35.26C42.7644 36.4323 42.6258 37.6523 42.6902 38.87C42.6257 40.0845 42.7642 41.3012 43.1002 42.47C43.2062 42.776 43.409 43.039 43.6778 43.2195C43.9466 43.3999 44.2669 43.4879 44.5902 43.47C44.9108 43.4867 45.2281 43.398 45.4935 43.2174C45.759 43.0369 45.958 42.7744 46.0602 42.47C46.3962 41.3012 46.5348 40.0845 46.4702 38.87C46.5346 37.6523 46.396 36.4323 46.0602 35.26C45.958 34.9557 45.759 34.6932 45.4935 34.5126C45.2281 34.332 44.9108 34.2433 44.5902 34.26Z" fill="#E30613"/>
<path d="M31.5998 25.92C33.5198 25.92 34.6798 24.57 34.6798 22.5C34.6798 20.43 33.5198 19.06 31.5998 19.06C29.6798 19.06 28.5298 20.39 28.5298 22.5C28.5298 24.61 29.6698 25.92 31.5998 25.92Z" fill="#E30613"/>
<path d="M46.9199 20.32C46.9208 20.137 46.8938 19.9549 46.8399 19.78C46.6799 19.2 46.2099 18.85 45.3399 18.85H43.8599V21.76H45.3399C46.4599 21.76 46.9199 21.19 46.9199 20.32Z" fill="#E30613"/>
</g>
<defs>
<clipPath id="clip0_129_779">
<rect width="64.46" height="60.75" fill="white"/>
</clipPath>
</defs>
</svg>
